<svg width="404.187" height="406.053" viewBox="0 0 303.14 304.54" class="displayed_equation" xmlns="http://www.w3.org/2000/svg">
  <path d="M 123.984375 1447.040625 L 2720.117188 1447.040625" transform="matrix(.1 0 0 -.1 0 304.54)" fill="none" stroke-width="7.97" stroke=currentColor stroke-miterlimit="10" />
  <path d="M 275.875 159.835938 L 270.40625 157.773438 L 272.210938 159.835938 L 270.40625 161.902344" />
  <path d="M 2758.75 1447.040625 L 2704.0625 1467.665625 L 2722.109375 1447.040625 L 2704.0625 1426.376563 Z M 2758.75 1447.040625" transform="matrix(.1 0 0 -.1 0 304.54)" fill="none" stroke-width="7.97" stroke="#000" stroke-miterlimit="10" />
  <path d="M 284.613281 159.113281 L 284.582031 159.113281 L 284.445313 158.546875 C 284.289063 157.945313 284.078125 157.453125 283.8125 157.140625 L 283.644531 157.140625 L 282.09375 157.320313 L 282.09375 157.652344 C 282.09375 157.652344 282.261719 157.621094 282.4375 157.621094 C 283.175781 157.609375 283.363281 157.910156 283.664063 158.847656 L 283.976563 159.863281 L 283.175781 161.035156 C 282.742188 161.660156 282.539063 161.671875 282.496094 161.671875 C 282.304688 161.671875 282.039063 161.527344 281.792969 161.527344 C 281.523438 161.527344 281.355469 161.769531 281.355469 161.992188 C 281.355469 162.273438 281.523438 162.539063 282.003906 162.539063 C 282.671875 162.539063 283.039063 162.015625 283.398438 161.433594 L 284.113281 160.277344 L 284.15625 160.277344 L 284.4375 161.402344 C 284.59375 162.128906 284.839844 162.550781 285.351563 162.550781 C 286.109375 162.550781 286.578125 161.792969 286.902344 161.300781 L 286.667969 161.121094 C 286.367188 161.527344 286.152344 161.746094 285.863281 161.746094 C 285.515625 161.746094 285.296875 161.335938 284.984375 160.308594 L 284.746094 159.550781 L 285.429688 158.46875 C 285.617188 158.15625 285.773438 158 286.03125 158 C 286.175781 158 286.433594 158.113281 286.609375 158.113281 C 286.914063 158.113281 287.125 157.855469 287.125 157.585938 C 287.125 157.273438 286.992188 157.097656 286.566406 157.097656 C 285.90625 157.097656 285.464844 157.644531 285.160156 158.179688 L 284.613281 159.113281" />
  <path d="M 1447.03125 123.954688 L 1447.03125 2720.126563" transform="matrix(.1 0 0 -.1 0 304.54)" fill="none" stroke-width="7.97" stroke=currentColor stroke-miterlimit="10" />
  <path d="M 144.703125 28.664063 L 142.640625 34.136719 L 144.703125 32.328125 L 146.765625 34.136719" />
  <path d="M 1447.03125 2758.759375 L 1426.40625 2704.032813 L 1447.03125 2722.11875 L 1467.65625 2704.032813 Z M 1447.03125 2758.759375" transform="matrix(.1 0 0 -.1 0 304.54)" fill="none" stroke-width="7.97" stroke="#000" stroke-miterlimit="10" />
  <path d="M 144.601563 17.511719 C 144.464844 16.621094 144.386719 16.265625 144.140625 15.839844 L 143.976563 15.839844 L 142.390625 15.964844 L 142.390625 16.285156 C 142.390625 16.285156 142.625 16.265625 142.78125 16.265625 C 143.464844 16.265625 143.519531 16.8125 143.597656 17.3125 L 144.253906 21.238281 C 143.941406 21.71875 143.140625 22.78125 142.925781 22.78125 C 142.679688 22.78125 142.558594 22.1875 142.132813 22.1875 C 141.878906 22.1875 141.699219 22.335938 141.699219 22.667969 C 141.699219 23.082031 142.089844 23.394531 142.558594 23.394531 C 143.40625 23.394531 144.1875 22.132813 145.023438 20.972656 C 145.605469 20.171875 146.242188 19.210938 146.84375 18.148438 C 147.199219 17.546875 147.332031 17.046875 147.332031 16.609375 C 147.332031 16.132813 147.042969 15.761719 146.632813 15.761719 C 146.308594 15.761719 146.140625 15.964844 146.140625 16.199219 C 146.140625 16.621094 146.6875 16.933594 146.6875 17.222656 C 146.6875 17.492188 146.585938 17.761719 146.320313 18.195313 L 145.035156 20.257813 L 144.96875 20.257813 L 144.867188 19.144531 L 144.601563 17.511719" />
  <path d="M 2274.765625 2141.571875 L 657.773438 784.735938" transform="matrix(.1 0 0 -.1 0 304.54)" fill="none" stroke-width="7.97" stroke=currentColor stroke-miterlimit="10" />
  <path d="M 62.804688 228.558594 L 68.34375 226.617188 L 65.621094 226.195313 L 65.679688 223.441406" />
  <path d="M 628.046875 759.814063 L 683.4375 779.228125 L 656.210938 783.446875 L 656.796875 810.985938 Z M 628.046875 759.814063" transform="matrix(.1 0 0 -.1 0 304.54)" fill="none" stroke-width="8.006" stroke="#000" stroke-miterlimit="10" />
  <path d="M 57.1875 230.019531 L 56.820313 230.019531 C 56.460938 230.957031 56.226563 231.125 55.433594 231.125 L 53.71875 231.125 L 53.71875 231.089844 L 57.632813 226.964844 L 57.679688 226.664063 L 53.59375 226.664063 L 53.179688 228.425781 L 53.527344 228.425781 C 53.75 227.679688 53.875 227.476563 54.585938 227.476563 L 56.394531 227.476563 L 56.394531 227.511719 L 52.488281 231.617188 L 52.445313 231.941406 L 56.683594 231.941406 L 57.1875 230.019531" />
  <path d="M 1447.03125 1447.040625 L 2101.601563 1175.321875" transform="matrix(.1 0 0 -.1 0 304.54)" fill="none" stroke-width="7.97" stroke="#55a4e0" stroke-dasharray="29.8883,29.8883" stroke-miterlimit="10" />
  <path d="M 2101.601563 1175.321875 L 2044.101563 1199.189063 L 2044.101563 1261.571875 L 2101.71875 1237.665625 Z M 2101.601563 1175.321875" transform="matrix(.1 0 0 -.1 0 304.54)" fill="none" stroke-width="7.97" stroke="#55a4e0" stroke-miterlimit="10" />
  <path d="M 1175.3125 1175.321875 L 2101.601563 1175.321875 L 2373.320313 1447.040625" transform="matrix(.1 0 0 -.1 0 304.54)" fill="none" stroke-width="7.97" stroke="#e14b3b" stroke-dasharray="29.8883,29.8883" stroke-miterlimit="10" />
  <path d="M162.015625 193.214844L161.980469 193.214844 161.847656 192.644531C161.691406 192.046875 161.476563 191.550781 161.210938 191.238281L161.042969 191.238281 159.492188 191.421875 159.492188 191.753906C159.492188 191.753906 159.660156 191.722656 159.839844 191.722656 160.574219 191.710938 160.765625 192.011719 161.066406 192.949219L161.378906 193.964844 160.574219 195.132813C160.140625 195.757813 159.9375 195.769531 159.894531 195.769531 159.703125 195.769531 159.4375 195.625 159.191406 195.625 158.921875 195.625 158.757813 195.871094 158.757813 196.09375 158.757813 196.371094 158.921875 196.640625 159.402344 196.640625 160.074219 196.640625 160.441406 196.117188 160.796875 195.535156L161.511719 194.375 161.554688 194.375 161.835938 195.503906C161.992188 196.226563 162.238281 196.652344 162.75 196.652344 163.507813 196.652344 163.976563 195.894531 164.300781 195.402344L164.066406 195.222656C163.765625 195.625 163.554688 195.847656 163.265625 195.847656 162.917969 195.847656 162.695313 195.433594 162.382813 194.410156L162.148438 193.652344 162.828125 192.566406C163.019531 192.257813 163.175781 192.097656 163.429688 192.097656 163.578125 192.097656 163.832031 192.210938 164.011719 192.210938 164.3125 192.210938 164.523438 191.953125 164.523438 191.6875 164.523438 191.375 164.390625 191.195313 163.96875 191.195313 163.308594 191.195313 162.863281 191.742188 162.5625 192.277344L162.015625 193.214844M168.167969 198.839844L168.167969 198.558594C167.449219 198.558594 167.230469 198.433594 167.230469 198.035156L167.230469 193.640625 166.898438 193.640625 165.453125 194.039063 165.453125 194.351563C165.65625 194.296875 166 194.242188 166.164063 194.242188 166.382813 194.242188 166.453125 194.359375 166.453125 194.636719L166.453125 198.035156C166.453125 198.433594 166.273438 198.558594 165.523438 198.558594L165.523438 198.839844 168.167969 198.839844M232.785156 180.921875L232.417969 180.921875C232.0625 181.859375 231.828125 182.027344 231.035156 182.027344L229.316406 182.027344 229.316406 181.992188 233.234375 177.863281 233.277344 177.5625 229.195313 177.5625 228.78125 179.324219 229.128906 179.324219C229.351563 178.578125 229.472656 178.378906 230.1875 178.378906L231.992188 178.378906 231.992188 178.410156 228.089844 182.515625 228.046875 182.839844 232.285156 182.839844 232.785156 180.921875M236.765625 185.238281L236.765625 184.960938C236.050781 184.960938 235.832031 184.835938 235.832031 184.4375L235.832031 180.042969 235.496094 180.042969 234.054688 180.4375 234.054688 180.75C234.257813 180.695313 234.601563 180.640625 234.765625 180.640625 234.984375 180.640625 235.054688 180.757813 235.054688 181.039063L235.054688 184.4375C235.054688 184.835938 234.871094 184.960938 234.125 184.960938L234.125 185.238281 236.765625 185.238281" fill="#e14b3b" />
  <path d="M 2101.601563 1175.321875 L 2101.601563 2189.814063" transform="matrix(.1 0 0 -.1 0 304.54)" fill="none" stroke-width="7.97" stroke="#e14b3b" stroke-dasharray="29.8883,29.8883" stroke-miterlimit="10" />
  <path d="M217.101563 134.214844C216.964844 133.320313 216.886719 132.964844 216.640625 132.539063L216.476563 132.539063 214.890625 132.664063 214.890625 132.988281C214.890625 132.988281 215.125 132.964844 215.28125 132.964844 215.964844 132.964844 216.019531 133.511719 216.097656 134.011719L216.753906 137.941406C216.441406 138.421875 215.640625 139.480469 215.425781 139.480469 215.179688 139.480469 215.058594 138.886719 214.632813 138.886719 214.378906 138.886719 214.199219 139.035156 214.199219 139.367188 214.199219 139.78125 214.589844 140.09375 215.058594 140.09375 215.90625 140.09375 216.6875 138.832031 217.523438 137.671875 218.105469 136.871094 218.742188 135.910156 219.34375 134.847656 219.699219 134.246094 219.832031 133.746094 219.832031 133.308594 219.832031 132.832031 219.542969 132.460938 219.132813 132.460938 218.808594 132.460938 218.640625 132.664063 218.640625 132.898438 218.640625 133.320313 219.1875 133.632813 219.1875 133.925781 219.1875 134.191406 219.085938 134.460938 218.820313 134.894531L217.535156 136.960938 217.46875 136.960938 217.367188 135.84375 217.101563 134.214844M223.367188 140.140625L223.367188 139.859375C222.648438 139.859375 222.429688 139.734375 222.429688 139.335938L222.429688 134.941406 222.097656 134.941406 220.65625 135.339844 220.65625 135.652344C220.859375 135.597656 221.199219 135.542969 221.363281 135.542969 221.582031 135.542969 221.652344 135.660156 221.652344 135.9375L221.652344 139.335938C221.652344 139.734375 221.472656 139.859375 220.726563 139.859375L220.726563 140.140625 223.367188 140.140625" fill="#e14b3b" />
  <path d="M 1447.03125 1447.040625 L 2068.554688 2152.314063" transform="matrix(.1 0 0 -.1 0 304.54)" fill="none" stroke-width="7.97" stroke="#55a4e0" stroke-dasharray="29.8883,29.8883" stroke-miterlimit="10" />
  <path d="M 209.410156 86.410156 L 204.242188 89.148438 L 206.984375 89.160156 L 207.339844 91.878906" fill="#55a4e0" />
  <path d="M 2094.101563 2181.298438 L 2042.421875 2153.915625 L 2069.84375 2153.798438 L 2073.398438 2126.610938 Z M 2094.101563 2181.298438" transform="matrix(.1 0 0 -.1 0 304.54)" fill="none" stroke-width="7.975" stroke="#55a4e0" stroke-miterlimit="10" />
  <path d="M212.710938 85.558594C212.710938 84.148438 211.570313 83.007813 210.160156 83.007813 208.753906 83.007813 207.609375 84.148438 207.609375 85.558594 207.609375 86.96875 208.753906 88.109375 210.160156 88.109375 211.570313 88.109375 212.710938 86.96875 212.710938 85.558594zM215.617188 71.710938L215.550781 72.046875C216.296875 72.046875 216.53125 72.167969 216.40625 72.824219L215.414063 77.621094C215.238281 78.558594 215.070313 78.707031 214.222656 78.707031L214.15625 79.039063 217.257813 79.039063 217.324219 78.707031C216.421875 78.707031 216.21875 78.582031 216.40625 77.667969L216.796875 75.761719C216.945313 75.804688 217.246094 75.847656 217.46875 75.847656 218.941406 75.847656 220.738281 75.179688 220.738281 73.25 220.738281 72.078125 219.699219 71.710938 218.328125 71.710938zM217.523438 72.191406C217.769531 72.167969 217.890625 72.144531 218.128906 72.144531 219.253906 72.144531 219.65625 72.648438 219.65625 73.382813 219.65625 74.8125 218.707031 75.390625 217.421875 75.390625 217.167969 75.390625 217.011719 75.371094 216.886719 75.347656L217.523438 72.191406M223.179688 76.183594C223.179688 78.636719 224.351563 80.386719 226.148438 81.316406L226.328125 81.003906C224.695313 79.933594 224.09375 78.425781 224.09375 76.183594 224.09375 73.964844 224.695313 72.46875 226.328125 71.386719L226.148438 71.097656C224.351563 72.011719 223.179688 73.75 223.179688 76.183594M230.214844 75.714844L230.179688 75.714844 230.046875 75.144531C229.890625 74.546875 229.679688 74.050781 229.410156 73.738281L229.242188 73.738281 227.691406 73.921875 227.691406 74.253906C227.691406 74.253906 227.859375 74.222656 228.039063 74.222656 228.773438 74.210938 228.964844 74.511719 229.265625 75.449219L229.578125 76.464844 228.773438 77.632813C228.339844 78.257813 228.140625 78.269531 228.09375 78.269531 227.90625 78.269531 227.636719 78.125 227.390625 78.125 227.121094 78.125 226.957031 78.371094 226.957031 78.59375 226.957031 78.871094 227.121094 79.140625 227.601563 79.140625 228.273438 79.140625 228.640625 78.617188 228.996094 78.035156L229.714844 76.875 229.757813 76.875 230.035156 78.003906C230.191406 78.726563 230.4375 79.152344 230.949219 79.152344 231.710938 79.152344 232.179688 78.394531 232.503906 77.902344L232.265625 77.722656C231.964844 78.125 231.753906 78.347656 231.464844 78.347656 231.117188 78.347656 230.894531 77.933594 230.582031 76.910156L230.347656 76.152344 231.027344 75.066406C231.21875 74.757813 231.375 74.597656 231.632813 74.597656 231.777344 74.597656 232.03125 74.710938 232.210938 74.710938 232.511719 74.710938 232.726563 74.453125 232.726563 74.1875 232.726563 73.875 232.589844 73.695313 232.167969 73.695313 231.507813 73.695313 231.0625 74.242188 230.761719 74.777344L230.214844 75.714844M236.367188 81.441406L236.367188 81.160156C235.648438 81.160156 235.429688 81.035156 235.429688 80.636719L235.429688 76.242188 235.097656 76.242188 233.65625 76.636719 233.65625 76.949219C233.859375 76.894531 234.199219 76.84375 234.363281 76.84375 234.582031 76.84375 234.652344 76.960938 234.652344 77.238281L234.652344 80.636719C234.652344 81.035156 234.472656 81.160156 233.726563 81.160156L233.726563 81.441406 236.367188 81.441406M238.226563 80.625C238.671875 80.421875 239.609375 80.046875 239.609375 78.785156 239.609375 78.171875 239.308594 77.800781 238.75 77.800781 238.304688 77.800781 238.058594 78.101563 238.058594 78.460938 238.058594 78.785156 238.238281 79.0625 238.671875 79.0625 238.796875 79.0625 238.894531 79.039063 239.015625 78.996094 239.015625 79.898438 238.503906 80.167969 238.09375 80.34375L238.226563 80.625M244.898438 75.414063C244.765625 74.519531 244.6875 74.164063 244.441406 73.738281L244.273438 73.738281 242.691406 73.863281 242.691406 74.1875C242.691406 74.1875 242.925781 74.164063 243.082031 74.164063 243.761719 74.164063 243.820313 74.710938 243.898438 75.214844L244.554688 79.140625C244.242188 79.621094 243.4375 80.679688 243.226563 80.679688 242.980469 80.679688 242.859375 80.089844 242.433594 80.089844 242.179688 80.089844 242 80.234375 242 80.566406 242 80.980469 242.390625 81.292969 242.859375 81.292969 243.707031 81.292969 244.488281 80.03125 245.324219 78.871094 245.90625 78.070313 246.539063 77.109375 247.140625 76.050781 247.5 75.449219 247.632813 74.945313 247.632813 74.511719 247.632813 74.03125 247.34375 73.660156 246.929688 73.660156 246.609375 73.660156 246.4375 73.863281 246.4375 74.097656 246.4375 74.519531 246.984375 74.835938 246.984375 75.125 246.984375 75.390625 246.886719 75.660156 246.617188 76.09375L245.335938 78.160156 245.269531 78.160156 245.167969 77.042969 244.898438 75.414063M251.167969 81.441406L251.167969 81.160156C250.449219 81.160156 250.230469 81.035156 250.230469 80.636719L250.230469 76.242188 249.898438 76.242188 248.453125 76.636719 248.453125 76.949219C248.65625 76.894531 249 76.84375 249.164063 76.84375 249.382813 76.84375 249.453125 76.960938 249.453125 77.238281L249.453125 80.636719C249.453125 81.035156 249.273438 81.160156 248.523438 81.160156L248.523438 81.441406 251.167969 81.441406M253.125 80.625C253.570313 80.421875 254.507813 80.046875 254.507813 78.785156 254.507813 78.171875 254.207031 77.800781 253.648438 77.800781 253.203125 77.800781 252.957031 78.101563 252.957031 78.460938 252.957031 78.785156 253.136719 79.0625 253.570313 79.0625 253.695313 79.0625 253.796875 79.039063 253.917969 78.996094 253.917969 79.898438 253.40625 80.167969 252.992188 80.34375L253.125 80.625M261.886719 77.121094L261.519531 77.121094C261.160156 78.058594 260.925781 78.226563 260.132813 78.226563L258.417969 78.226563 258.417969 78.191406 262.332031 74.066406 262.378906 73.761719 258.292969 73.761719 257.882813 75.527344 258.226563 75.527344C258.449219 74.777344 258.574219 74.578125 259.289063 74.578125L261.09375 74.578125 261.09375 74.609375 257.1875 78.71875 257.144531 79.039063 261.382813 79.039063 261.886719 77.121094M265.867188 81.441406L265.867188 81.160156C265.148438 81.160156 264.929688 81.035156 264.929688 80.636719L264.929688 76.242188 264.597656 76.242188 263.15625 76.636719 263.15625 76.949219C263.359375 76.894531 263.699219 76.84375 263.863281 76.84375 264.082031 76.84375 264.152344 76.960938 264.152344 77.238281L264.152344 80.636719C264.152344 81.035156 263.972656 81.160156 263.226563 81.160156L263.226563 81.441406 265.867188 81.441406M270.390625 76.183594C270.390625 73.75 269.21875 72.011719 267.425781 71.097656L267.246094 71.386719C268.875 72.46875 269.476563 73.964844 269.476563 76.183594 269.476563 78.425781 268.875 79.933594 267.246094 81.003906L267.425781 81.316406C269.21875 80.386719 270.390625 78.636719 270.390625 76.183594" fill="#55a4e0" />
  <path d="M 140.097656 150.96875 C 140.097656 149.460938 139.269531 148.074219 137.253906 148.074219 C 134.851563 148.074219 133.121094 150.105469 133.121094 152.761719 C 133.121094 154.402344 133.894531 155.675781 135.945313 155.675781 C 138.300781 155.675781 140.097656 153.808594 140.097656 150.96875 Z M 138.960938 150.921875 C 138.960938 153.398438 137.886719 155.195313 136.078125 155.195313 C 134.695313 155.195313 134.273438 154.15625 134.273438 152.828125 C 134.273438 150.464844 135.367188 148.554688 137.128906 148.554688 C 138.277344 148.554688 138.960938 149.347656 138.960938 150.921875" />
</svg>