<svg xmlns="http://www.w3.org/2000/svg" xmlns:xlink="http://www.w3.org/1999/xlink" version="1.1" x="0px" y="0px" viewBox="0 0 100 100" style="enable-background:new 0 0 100 100;" xml:space="preserve"><path d="M84.8,23.2C77.9,8.7,59.8,3.6,46.3,6.1c-12.4,2.4-21.8,9-25,17.7c-1.6,4.2-2.2,9.1-1.9,14.1c0.1,0.9,0.2,2,0.7,2.9  c0.3,0.6-0.1,1.3-0.9,2.4c-0.2,0.2-0.3,0.4-0.4,0.6c-0.5,0.7-1,1.5-1.5,2.2c-0.5,0.7-1,1.5-1.5,2.2c-0.9,1.4-1.9,2.8-2.6,4.4  L13,52.8c-0.4,0.8-1,1.9-0.7,2.9c-0.1,1.7,2.6,2.7,4.7,3.6c0.3,0.1,0.7,0.3,0.9,0.4c-0.1,0.6-0.5,1.7-0.7,2.2  c-0.2,0.6-0.3,0.9-0.4,1.1c-0.2,1,0.5,1.9,1.7,2.5c-0.3,0.2-0.5,0.4-0.6,0.7c-0.4,0.9,0.3,1.6,1.1,2.3c0.3,0.3,1.1,1,1.1,1.2  c0,0-0.1,0.2-0.1,0.3c-2.1,4.5-1.9,7.5,0.6,9c4,2.4,9.2,2.7,11.9,2.7c1.6,0.2,3.7,0.9,4.3,2.6c0.5,1.3,0.8,4-0.4,9.2  c-0.1,0.5,0.2,1.1,0.7,1.2c0.1,0,0.2,0,0.2,0c0.4,0,0.8-0.3,0.9-0.7c1.1-4.5,1.2-8,0.3-10.3c-0.3-0.9-0.9-1.7-1.7-2.3  c4.3-0.7,8.6-2.2,12.4-4.6c2.1-1.3,5-3.4,5-6.2c0-0.5-0.4-1-1-1c-0.5,0-1,0.4-1,1c0,2-3.1,4-4.1,4.6c-4.5,2.8-9.6,4.4-14.8,4.6  c-4.6,0.2-8.9-0.7-11.9-2.4c-1.5-0.9-1.4-3.1,0.2-6.5c0.1-0.2,0.2-0.5,0.3-0.8c0.2-1.1-0.8-2.1-1.7-2.9c-0.1-0.1-0.2-0.2-0.3-0.3  c0.6-0.4,1.3-0.9,1.1-1.8c-0.1-0.4-0.3-0.8-1.1-1.1c-0.7-0.2-1.1-0.5-1.2-0.7c0-0.2,0.1-0.4,0.3-0.7c0.8-2.1,1.3-3.6,0.3-4.3  c-0.3-0.2-0.7-0.4-1.6-0.8c-0.9-0.3-3.1-1.2-3.5-1.8l0.1-0.2l-0.1-0.3c-0.1-0.3,0.4-1.2,0.6-1.5l0.1-0.3c0.7-1.4,1.6-2.8,2.5-4.2  c0.5-0.7,1-1.4,1.4-2.2c0.5-0.7,1-1.5,1.5-2.2c0.1-0.2,0.3-0.4,0.4-0.6c0.8-1.1,1.9-2.7,1-4.4c-0.3-0.6-0.4-1.4-0.4-2.2  c-0.3-4.7,0.3-9.3,1.8-13.3c3-8.1,11.8-14.2,23.6-16.4C59.4,5.6,76.5,10.4,83,24c2.4,5.1,3.3,11.5,2.4,17.2  c-0.9,5.8-2.7,9.9-6.3,14.6c-2.5,3.3-5.7,7.4-6.2,12.3c-0.8,8,0.9,17.1,2.4,25.1l0.1,0.6c0.1,0.5,0.5,0.8,1,0.8c0.1,0,0.1,0,0.2,0  c0.5-0.1,0.9-0.6,0.8-1.1l-0.1-0.6c-1.5-7.9-3.2-16.8-2.4-24.5c0.5-4.3,3.4-8.2,5.8-11.3c3.8-5,5.7-9.3,6.7-15.5  C88.4,35.4,87.4,28.6,84.8,23.2z"/><path d="M83.5,37.3c1.4-4.6,0.4-10.4-3.9-12.4c-0.1-3-3.2-6.5-4.9-7.3c0,0,0,0,0,0c0,0,0,0,0,0c-0.1,0-0.1-0.1-0.2-0.1  c-0.9-2.2-7.8-6-12-6c-0.2,0-0.5,0-0.7,0c-6.3-3.4-16.8-0.9-19.5,1.7c0,0,0,0,0,0c0,0,0,0,0,0c-0.2,0.2-0.3,0.3-0.4,0.5  c-2.9-0.9-6.7,0.5-9.2,2.2c-1.7,1.1-3.6,2.8-3.8,4.3c-0.1,0-0.1,0.1-0.2,0.1c0,0,0,0,0,0c0,0,0,0-0.1,0c-3.5,2.6-4.3,7.1-3.5,10.1  c0,0,0,0,0,0.1c0.3,1.2,0.8,2.1,1.5,2.6c0.3,3.3,1.5,5.8,3.5,7.4c2.6,2.1,5.7,2.1,6.9,2c0.1,0.3,0.3,0.6,0.5,0.8  c0.6,0.7,1.5,1.3,2.1,1.6c1.9,1.2,3.5,2,5.1,2.7c1.2,0.5,2.7,1,4.3,0.8c0.2,0,1.3-0.2,2-0.5c0,0,0.1,0,0.1,0  c0.6,1.5,2.4,2.6,3.4,3.2c0.7,0.4,1.5,0.7,2.3,1c0.8,0.3,1.7,0.6,2.3,1.1c1.1,0.8,2.2,1.6,3.1,2.5l0.3,0.3c0.5,0.5,1.3,1.1,1.4,1.7  c0,0.3,0.2,0.4,0.5,0.4c0,0,0,0,0.1,0c0.3,0,0.5-0.3,0.4-0.5c-0.1-0.9-1-1.7-1.7-2.3L62.7,55c-1-0.9-2.1-1.8-3.2-2.6  c-0.8-0.5-1.7-0.9-2.5-1.2c-0.8-0.3-1.5-0.5-2.1-0.9c-1-0.6-3-1.8-3.2-3.2v0c0-0.1,0-0.2-0.1-0.2c0.6-1,1.4-1.9,2.4-2.6  c0.6-0.4,1.1-0.7,1.6-1c0,0,0,0,0,0c0.5-0.3,1-0.5,1.5-0.6c0.8-0.2,1.4-0.1,2.2,0.1c0.5,0.1,1,0.2,1.5,0.2c1.8,0.1,3.4-0.6,4.8-1.2  c0.8-0.3,1.6-0.7,2.4-0.9c1.6-0.5,3.4,0,5.1,0.3c0.4,0.1,0.8,0.2,1.2,0.3c0,0,0,0,0,0c0,0,0,0,0,0c0.7,0.2,1.4,0.3,2,0.4  c0,0,0.1,0,0.1,0v0c0.6,0.1,1.4,0.3,2.3,0.6c-0.2,2.1-2,4.4-5,6.3c-3.4,2.2-7.1,3.2-8.4,2.6c-0.1-0.1-0.2-0.1-0.3-0.2  c-0.1-0.1-0.1-0.1-0.2-0.1c-1.1-0.4-2.1-1-2.9-1.7c-1.5-1.4-2.3-3.3-2.5-5.9c0-0.3-0.2-0.5-0.5-0.5c-0.3,0-0.5,0.2-0.5,0.5  c0.2,2.8,1.1,5,2.8,6.6c0.9,0.8,1.9,1.4,3.1,1.8c0.1,0.1,0.3,0.2,0.4,0.2c3.3,2.9,4.5,7.6,4.1,9.2c-0.1,0.3,0.1,0.5,0.4,0.6  c0,0,0.1,0,0.1,0c0.2,0,0.4-0.2,0.5-0.4c0.4-1.6-0.5-5.9-3.4-9.1c2.1-0.1,5.1-1.2,7.7-2.9c2-1.3,5.4-4,5.4-7.5c0-0.1,0-0.1,0-0.2  C81.4,41.4,82.7,39.7,83.5,37.3C83.4,37.3,83.4,37.3,83.5,37.3C83.5,37.3,83.5,37.3,83.5,37.3z M79.3,41.1c-0.1,0-0.2,0.1-0.3,0.2  c-0.7-0.1-1.5-0.2-2.3-0.3c-0.6-0.1-1.2-0.2-1.8-0.4l-0.2,0c0,0-0.1,0-0.1,0c0,0,0,0,0,0c-2.4-0.6-2.6-1.1-2.6-1.2  c0-0.1-0.1-0.2-0.2-0.2c-2.2-1.7-3-2.6-1.9-4.9c0.1-0.2,0-0.5-0.2-0.7c-0.2-0.1-0.5,0-0.7,0.2c-1.5,2.9-0.1,4.3,2,6c0,0,0,0,0,0  c-1.1-0.2-2.2-0.2-3.3,0.1c-0.9,0.3-1.7,0.6-2.5,1c-1.5,0.6-2.8,1.2-4.4,1.2c-0.5,0-0.9-0.1-1.4-0.2c-0.8-0.2-1.6-0.3-2.6-0.1  c-0.6,0.2-1.1,0.4-1.7,0.7c-2.5,0.3-4.3,0.1-4.8-0.6c-0.2-0.2-0.5-0.3-0.7-0.1c-0.2,0.2-0.3,0.5-0.1,0.7c0.6,0.7,1.8,1.1,3.6,1.1  c0.1,0,0.1,0,0.2,0c-1.2,0.8-2.2,1.9-2.8,3.1c-0.1,0.2-0.2,0.4-0.3,0.6c-0.6,0.2-1.4,0.4-1.6,0.4c-1.4,0.2-2.7-0.3-3.8-0.7  c-1.6-0.6-3.2-1.5-5-2.6c-0.5-0.3-1.2-0.7-1.7-1.2c0.9-3.1,2.6-6,4.6-7.8c0.2-0.2,0.5-0.4,0.8-0.6c2.3-1.8,5-2.7,7.1-2.6  c0.3,0,0.5,0,0.7,0c1.3-0.1,2.7-0.9,4.3-2.3c0.6-0.5,1.1-1.1,1.6-1.5c0.3-0.3,1.2-0.2,2-0.1c1.2,0.1,2.8,0.3,3.3-1.1  c0.1-0.3,0-0.5-0.3-0.6c-0.3-0.1-0.5,0-0.6,0.3c-0.2,0.6-0.9,0.6-2.3,0.5c-1-0.1-2.1-0.2-2.8,0.4c-0.4,0.4-0.8,0.8-1.2,1.2  c-1.5-1.5-2.1-3.1-1.7-4.6c0.4-1.9,2.2-3.3,3.3-3.7c0.3-0.1,0.4-0.4,0.3-0.6c-0.1-0.3-0.4-0.4-0.6-0.3c-1.2,0.4-3.4,2-3.9,4.4  c-0.3,1.3-0.1,3.3,2,5.4c-1.3,1.1-2.4,1.7-3.4,1.8c-0.2,0-0.4,0-0.6,0c-3.5-0.1-6.6,1.9-7.8,2.8c0,0-0.1,0.1-0.1,0.1  c-0.3-2.8,0.4-5.8,1.1-6.7c0.6-0.9,0.5-1.8,0.5-2.5c0-0.8,0-1.3,0.4-1.7c2.2-0.2,4.4-1.4,5.7-3.3c0.9-1.3,1.3-2.7,0.9-3.9  c-0.1-0.3-0.3-0.4-0.6-0.3c-0.3,0.1-0.4,0.3-0.3,0.6c0.2,0.9,0,2-0.8,3.1c-1.2,1.6-3.1,2.7-5,2.8c-3.4-1.4-6.3-0.5-8,2.4  c-0.1,0.2,0,0.5,0.2,0.7c0.1,0,0.2,0.1,0.2,0.1c0.2,0,0.3-0.1,0.4-0.2c1.3-2.3,3.5-3.1,6.2-2.2c-0.4,0.6-0.4,1.3-0.4,1.9  c0,0.7,0,1.3-0.3,1.9c-1,1.3-1.8,4.9-1.2,8.1c-1.9,1.8-3.5,4.4-4.4,7.2c-0.1-0.2-0.3-0.3-0.5-0.3c0,0-3.7,0.5-6.5-1.7  c-1.8-1.5-2.9-3.8-3.2-6.9c0,0,0,0,0-0.1c0.1,0,0.2,0.1,0.2,0.1c0.6,0.3,1.3,0.3,1.9,0.3c0.5,0,0.9,0,1.3,0.2  c0.7,0.3,1.2,1.3,1.2,2.1c0,0.3,0.2,0.5,0.5,0.5s0.5-0.2,0.5-0.5c0-1.1-0.7-2.6-1.8-3c-0.6-0.2-1.1-0.2-1.7-0.2c-0.5,0-1,0-1.5-0.2  c-0.9-0.4-1.6-1-2.2-1.9c-0.6-2.4-0.1-5.9,2.4-8.3c0,1.9,0.4,3.2,1.4,4c0.6,0.5,1.2,0.6,1.7,0.8c0.7,0.2,1.3,0.4,1.7,1.2  c0.4,0.9,2.2,3.3,3.9,3.6c0.1,0,0.3,0,0.4,0c0.5,0,0.9-0.2,1.3-0.5c0.2-0.2,0.2-0.5,0-0.7c-0.2-0.2-0.5-0.2-0.7,0  c-0.2,0.2-0.5,0.3-0.8,0.2c-1.3-0.2-2.8-2.3-3.2-3.1c-0.6-1.2-1.5-1.5-2.3-1.7c-0.5-0.1-1-0.3-1.4-0.6c-0.9-0.7-1.2-2-1-4.1  c0.1,0,0.1-0.1,0.2-0.1c0.1-0.1,0.2-0.2,0.2-0.4c0-0.9,1.4-2.5,3.4-3.7c2.4-1.5,6-3,8.7-2c-0.3,1.5-0.1,2.7,0.6,3.3  c0.1,0.1,0.2,0.1,0.3,0.1c0.1,0,0.3-0.1,0.4-0.2c0.2-0.2,0.1-0.5-0.1-0.7c-0.4-0.4-0.6-1.7,0-3.4c2.7-2.4,12.7-4.6,18.5-1.4  c0.1,0.1,0.2,0.1,0.3,0.1c0.2,0,0.3,0,0.5,0c2,3.3,2.1,5.4,0.3,7.2c-0.2,0.2-0.2,0.5,0,0.7c0.1,0.1,0.2,0.1,0.3,0.1  c0.1,0,0.3,0,0.3-0.1c2.5-2.6,1.6-5.4,0.2-7.8c4.3,0.5,9.9,4.1,10.2,5.3c-1.6,0.6-3.3,1.5-4.2,3c-0.5,0.9-0.6,1.9-0.7,2.9  c0,0.3-0.1,0.6-0.1,0.9c-0.2,1-0.4,2-0.6,2.8c-0.5,1.5-1.3,3.6-3,4.4c-0.5,0.2-1.2,0.1-2,0c-1.2-0.2-2.5-0.4-3.4,0.5  c-0.1,0.1-0.1,0.2-0.2,0.3c-0.1,0.9-2.1,2.7-3.6,3.3c-0.6,0.2-0.9,0.2-1,0.1c-0.2-0.2-0.5-0.1-0.7,0.1c-0.2,0.2-0.1,0.5,0.1,0.7  c0.2,0.2,0.5,0.3,0.9,0.3c0.3,0,0.7-0.1,1.1-0.2c1.7-0.6,3.8-2.5,4.2-3.9c0.6-0.5,1.5-0.3,2.5-0.2c0.9,0.1,1.8,0.3,2.6-0.1  c2-1,3-3.3,3.5-5c0.3-0.9,0.5-1.8,0.7-2.9c0.1-0.3,0.1-0.7,0.1-1c0.1-0.9,0.2-1.8,0.6-2.5c0.8-1.3,2.3-2,3.7-2.6l0.2-0.1  c0.1,0,0.2-0.1,0.3-0.1c1.6,1,4.4,4.2,4.2,6.6c0,0.2,0.1,0.4,0.3,0.5c3.9,1.6,4.6,6.6,3.9,10.2c-1.3-1.9-3.3-2.7-5-2.9  c0.7-2.6-1.7-4.5-3.2-5.2c-0.2-0.1-0.5,0-0.6,0.2c-0.1,0.2,0,0.5,0.2,0.6c0.1,0.1,3.5,1.6,2.5,4.3c-1.1,0.1-1.9,0.4-2.2,1  c-0.1,0.2,0,0.5,0.2,0.7c0.2,0.1,0.5,0,0.7-0.2c0.1-0.3,0.8-0.5,1.7-0.6c0,0,0,0,0.1,0c1.7,0,4,0.9,5.2,3.3  C81.8,39.4,80.6,40.9,79.3,41.1z"/></svg>