<svg xmlns="http://www.w3.org/2000/svg" xmlns:xlink="http://www.w3.org/1999/xlink" version="1.1" x="0px" y="0px" viewBox="0 0 100 125" style="enable-background:new 0 0 100 100;" xml:space="preserve"><path d="M69.8,44.8V91H9.1V9h60.7v3.6h3.6l0-5.4c0-0.5-0.2-0.9-0.5-1.3c-0.3-0.3-0.8-0.5-1.3-0.5H7.3  C6.8,5.4,6.3,5.5,6,5.9C5.6,6.2,5.5,6.7,5.5,7.2v85.7c0,0.5,0.2,0.9,0.5,1.3c0.3,0.3,0.8,0.5,1.3,0.5h64.4c0.5,0,0.9-0.2,1.3-0.5  c0.3-0.3,0.5-0.8,0.5-1.3V44.8H69.8L69.8,44.8z"/><path d="M76.8,15.7c-0.3-0.3-0.8-0.5-1.3-0.5c-0.5,0-0.9,0.2-1.3,0.6L39.1,52.3c-0.7,0.7-0.7,1.9,0.1,2.6l7.7,7.4  c0.3,0.3,0.8,0.5,1.3,0.5c0.5,0,0.9-0.2,1.3-0.6l35.1-36.6c0.7-0.7,0.7-1.9-0.1-2.6L76.8,15.7z M48,58.4L43,53.5l32.6-34l5.1,4.9  L48,58.4z"/><path d="M94,13.3l-7.7-7.4c-0.7-0.7-1.9-0.7-2.6,0l-5.7,5.9c-0.7,0.7-0.7,1.9,0,2.6l7.7,7.4c0.3,0.3,0.8,0.5,1.3,0.5  c0.5,0,0.9-0.2,1.3-0.6l5.7-5.9c0.3-0.3,0.5-0.8,0.5-1.3C94.5,14.1,94.3,13.6,94,13.3z M87,17.9L81.9,13l3.1-3.3l5.1,4.9L87,17.9z"/><path d="M29.9,74.5l11.4-4.1c0.3-0.1,0.5-0.2,0.7-0.4l3.6-3.8c0.3-0.3,0.5-0.8,0.5-1.3c0-0.5-0.2-0.9-0.6-1.3  l-7.7-7.4c-0.7-0.7-1.9-0.7-2.6,0l-3.7,3.8c-0.2,0.2-0.3,0.4-0.4,0.7l-3.7,11.5c-0.2,0.7,0,1.4,0.5,1.9  C28.5,74.6,29.2,74.8,29.9,74.5z M34.5,62.3l2.1-2.2l5.1,4.9l-2.1,2.1l-7.5,2.7L34.5,62.3z"/><rect x="17.8" y="16" width="45.8" height="3.6"/><rect x="17.8" y="26.7" width="35.1" height="3.6"/><rect x="17.8" y="37.5" width="24.4" height="3.6"/><rect x="17.8" y="48.2" width="13.6" height="3.6"/><rect x="17.8" y="58.9" width="5.6" height="3.6"/><rect x="17.8" y="69.7" width="2.8" height="3.6"/></svg>