<?xml version="1.0" encoding="iso-8859-1"?>
<!-- Uploaded to: SVG Repo, www.svgrepo.com, Generator: SVG Repo Mixer Tools -->
<svg fill="#000000" height="800px" width="800px" version="1.1" id="Layer_1" xmlns="http://www.w3.org/2000/svg" xmlns:xlink="http://www.w3.org/1999/xlink" 
	 viewBox="0 0 490.001 490.001" xml:space="preserve">
<g>
	<g>
		<g>
			<path d="M459.374,53.594H252.657V7.657C252.657,3.429,249.228,0,245,0c-4.228,0-7.657,3.429-7.657,7.657v45.937H30.625
				c-4.228,0-7.657,3.429-7.657,7.657v313.905c0,4.228,3.429,7.657,7.657,7.657h59.529v15.312c0,5.179,4.198,9.377,9.377,9.377
				h51.342l-57.268,69.994c-2.678,3.273-2.195,8.096,1.078,10.774c1.422,1.164,3.139,1.731,4.843,1.731
				c2.217,0,4.417-0.958,5.931-2.809l65.201-79.69h66.685v74.842c0,4.228,3.429,7.657,7.657,7.657c4.228,0,7.657-3.429,7.657-7.657
				v-74.842h66.685l65.201,79.69c1.514,1.85,3.713,2.809,5.931,2.809c1.705,0,3.421-0.567,4.843-1.731
				c3.272-2.677,3.755-7.501,1.078-10.774l-57.268-69.994h51.342c5.179,0,9.377-4.198,9.377-9.377v-15.312h59.529
				c4.228,0,7.657-3.429,7.657-7.657V61.25C467.031,57.022,463.602,53.594,459.374,53.594z M381.092,388.748h-0.001H108.909v-27.184
				h272.183V388.748z M399.844,367.499v-15.311c0-5.179-4.198-9.377-9.377-9.377H99.532c-5.179,0-9.377,4.198-9.377,9.377v15.311
				H38.282V68.907h413.435v298.592H399.844z"/>
			<path d="M421.093,275.625h-15.311V245c0-4.228-3.429-7.657-7.657-7.657h-53.594c-4.228,0-7.656,3.429-7.656,7.657v30.625h-15.311
				v-61.25c0-4.228-3.429-7.657-7.657-7.657h-53.594c-4.228,0-7.657,3.429-7.657,7.657v61.25h-15.312V168.438
				c0-4.228-3.429-7.657-7.657-7.657h-53.594c-4.228,0-7.657,3.429-7.657,7.657v107.187h-15.311v-160.78
				c0-4.228-3.429-7.657-7.657-7.657H91.875c-4.228,0-7.657,3.429-7.657,7.657v160.78H68.907c-4.228,0-7.657,3.429-7.657,7.657
				s3.429,7.657,7.657,7.657h352.186c4.228,0,7.657-3.429,7.657-7.657C428.75,279.054,425.321,275.625,421.093,275.625z
				 M137.812,275.625h-38.28V122.501h38.28V275.625z M222.031,275.625h-38.28v-99.53h38.28V275.625z M306.249,275.625h-38.28
				v-53.593h38.28V275.625z M390.468,275.625h-38.28v-22.968h38.28V275.625z"/>
			<path d="M329.219,107.189h91.874c4.228,0,7.657-3.429,7.657-7.657c0-4.228-3.429-7.657-7.657-7.657h-91.874
				c-4.228,0-7.657,3.429-7.657,7.657C321.562,103.76,324.991,107.189,329.219,107.189z"/>
			<path d="M421.093,122.5H367.5c-4.228,0-7.656,3.429-7.656,7.657c0,4.228,3.429,7.657,7.656,7.657h53.593
				c4.228,0,7.657-3.429,7.657-7.657C428.75,125.929,425.321,122.5,421.093,122.5z"/>
			<path d="M421.093,153.125H367.5c-4.228,0-7.656,3.429-7.656,7.657c0,4.228,3.429,7.657,7.656,7.657h53.593
				c4.228,0,7.657-3.428,7.657-7.657S425.321,153.125,421.093,153.125z"/>
			<path d="M168.438,306.25H68.907c-4.228,0-7.657,3.429-7.657,7.657s3.429,7.656,7.657,7.656h99.531
				c4.228,0,7.657-3.429,7.657-7.656C176.095,309.678,172.666,306.25,168.438,306.25z"/>
			<path d="M222.031,306.25h-22.968c-4.228,0-7.657,3.429-7.657,7.657s3.429,7.656,7.657,7.656h22.968
				c4.228,0,7.657-3.429,7.657-7.656C229.688,309.678,226.259,306.25,222.031,306.25z"/>
		</g>
	</g>
</g>
</svg>