<?xml version="1.0" encoding="utf-8"?>
<!-- Generator: Adobe Illustrator 16.0.0, SVG Export Plug-In . SVG Version: 6.00 Build 0)  -->
<svg version="1.2" baseProfile="tiny" id="レイヤー_1"
	 xmlns="http://www.w3.org/2000/svg" xmlns:xlink="http://www.w3.org/1999/xlink" x="0px" y="0px" width="580.838px" height="600px"
	 viewBox="0 0 580.838 600" xml:space="preserve">
<metadata><?xpacket begin="﻿" id="W5M0MpCehiHzreSzNTczkc9d"?>
<x:xmpmeta xmlns:x="adobe:ns:meta/" x:xmptk="Adobe XMP Core 5.3-c011 66.145661, 2012/02/06-14:56:27        ">
   <rdf:RDF xmlns:rdf="http://www.w3.org/1999/02/22-rdf-syntax-ns#">
      <rdf:Description rdf:about=""
            xmlns:dc="http://purl.org/dc/elements/1.1/">
         <dc:format>image/svg+xml</dc:format>
         <dc:title>
            <rdf:Alt>
               <rdf:li xml:lang="x-default">Print</rdf:li>
            </rdf:Alt>
         </dc:title>
      </rdf:Description>
      <rdf:Description rdf:about=""
            xmlns:xmp="http://ns.adobe.com/xap/1.0/"
            xmlns:xmpGImg="http://ns.adobe.com/xap/1.0/g/img/">
         <xmp:MetadataDate>2014-06-02T00:24:57+09:00</xmp:MetadataDate>
         <xmp:ModifyDate>2014-06-02T00:24:57+09:00</xmp:ModifyDate>
         <xmp:CreateDate>2014-06-02T00:24:57+09:00</xmp:CreateDate>
         <xmp:CreatorTool>Adobe Illustrator CS6 (Macintosh)</xmp:CreatorTool>
         <xmp:Thumbnails>
            <rdf:Alt>
               <rdf:li rdf:parseType="Resource">
                  <xmpGImg:width>248</xmpGImg:width>
                  <xmpGImg:height>256</xmpGImg:height>
                  <xmpGImg:format>JPEG</xmpGImg:format>
                  <xmpGImg:image>/9j/4AAQSkZJRgABAgEASABIAAD/7QAsUGhvdG9zaG9wIDMuMAA4QklNA+0AAAAAABAASAAAAAEA&#xA;AQBIAAAAAQAB/+4ADkFkb2JlAGTAAAAAAf/bAIQABgQEBAUEBgUFBgkGBQYJCwgGBggLDAoKCwoK&#xA;DBAMDAwMDAwQDA4PEA8ODBMTFBQTExwbGxscHx8fHx8fHx8fHwEHBwcNDA0YEBAYGhURFRofHx8f&#xA;Hx8fHx8fHx8fHx8fHx8fHx8fHx8fHx8fHx8fHx8fHx8fHx8fHx8fHx8fHx8f/8AAEQgBAAD4AwER&#xA;AAIRAQMRAf/EAaIAAAAHAQEBAQEAAAAAAAAAAAQFAwIGAQAHCAkKCwEAAgIDAQEBAQEAAAAAAAAA&#xA;AQACAwQFBgcICQoLEAACAQMDAgQCBgcDBAIGAnMBAgMRBAAFIRIxQVEGE2EicYEUMpGhBxWxQiPB&#xA;UtHhMxZi8CRygvElQzRTkqKyY3PCNUQnk6OzNhdUZHTD0uIIJoMJChgZhJRFRqS0VtNVKBry4/PE&#xA;1OT0ZXWFlaW1xdXl9WZ2hpamtsbW5vY3R1dnd4eXp7fH1+f3OEhYaHiImKi4yNjo+Ck5SVlpeYmZ&#xA;qbnJ2en5KjpKWmp6ipqqusra6voRAAICAQIDBQUEBQYECAMDbQEAAhEDBCESMUEFURNhIgZxgZEy&#xA;obHwFMHR4SNCFVJicvEzJDRDghaSUyWiY7LCB3PSNeJEgxdUkwgJChgZJjZFGidkdFU38qOzwygp&#xA;0+PzhJSktMTU5PRldYWVpbXF1eX1RlZmdoaWprbG1ub2R1dnd4eXp7fH1+f3OEhYaHiImKi4yNjo&#xA;+DlJWWl5iZmpucnZ6fkqOkpaanqKmqq6ytrq+v/aAAwDAQACEQMRAD8A9U4q7FXYq7FXYq7FXYq7&#xA;FXYq7FUv1bzDomkaVe6rqN7Fb6fpyNJe3DNURhevILU8uwUCpOw3xV47N/zlTo+q3b2HkLytq/m2&#xA;+jFW9GIwQgHYMz0mkUe7RjFXfWv+crfNW8Fto/kayfo0xF3dhT7UuUr81TFWz/zjJNrgZ/P3nrW/&#xA;Mcjb+hHILa2UnssTm4FB/k8flirQ/wCcUdA08BvLHm7zDoUi/Z9G6UoCKEECNIW67/axV3/Kovz9&#xA;0jfQfzVkvAPspqtoJfEULym8r86Yq71P+cvNHO8XlzzGo6hS8LMNuhJsgD9GKsSuf+cwvMHl7V5N&#xA;H82+UIFvbchbo6fqEcgQkV+HitxGx9vV2xVmcn/OX/5Oo8Kia/kEqK8jpanjGzLUo/JlJZTseII8&#xA;CRvirINL/wCck/yU1IqsXmaGBzsVuori3pvTdpY1T/hsVZjpPnnyVrHEaTr+nX7N0W2u4JW3/wAl&#xA;GJxVO8VdirsVdirsVdirsVdirsVdirsVdirsVdirsVdiqR+ZfPPk3ywgfzBrVnphZeSR3MyJI48U&#xA;jJ5v/sRiryrXv+cvfyztJGt9Ct7/AMxXe4jW1gMUTEeLTcJPujOKsM1P/nIX879eBTy/5bs/Lls3&#xA;S4vmM86+H2/TH/JE4qxTUtK/MzzOSfN/na9uYn/vbGzYwQH/AGCenF/ySxVKZfyY8sGNlgubyFmF&#xA;CwkQgjrRgU3G2KoGD8pdb0qZp/L/AJknspW2JT1IGIHSskLgnr4Yqm9trP8Azkpon+8Hmya+C1K+&#xA;tcLdE713+vI368VTNP8AnJD/AJyI8vwtLrGm2l/BFvNNcWuwA6kvaSRIPn0xVN9K/wCc4r9QF1by&#xA;nFMf2pLS7aKhp/JJFL3/AMvFUH5m/wCc2vMdzF6Xlvy/bacx2Nzeytdt81RFgVT8y2KvO4POfnj8&#xA;zLyW382ef00qxqA8F1KbeFw9fsW8IigbjTfmwxV6d5K/Ij8qAiTNqK+Z5gASy3Ceh7FY7dq/8E7Y&#xA;q9TsPLPlzT7b6rY6XaW1vTiYooY1Uj3oN/pxVL9R/LjyDqJY3fl6wd23aRbeNHPfd0Ct+OKsZ1D/&#xA;AJx5/K27qY9OlsmPVre4m/VI0i/hiqXxfkI+mf8AKM+c9c0an2Ak5IHTp6Jt/DFUNrV5+cvkaD12&#xA;/Na29ICqR6xGrPIASaKsiXkjf7DfFUl8lf8AOY/n2DVIYfMen2+s2LhlZLSIw3jPxPp8Crenu9Kj&#xA;h06Yq9Dh/wCcovO0ZM1/+VuqxWDN8MsbzM6rUfaVrVR38RiqYWX/ADmJ+W5kEOr6Zq+kT/tCe3jd&#xA;R/wEnP8A4TFWWaV/zkj+SmpUEPmeCBz1W6intqfNpo0Tv44qzHSfO3k3WKDSde0/UC1KLa3UMx39&#xA;kZjiqdYq7FXYq7FXYql2teY/L+h2/wBZ1rU7XTYKE+rdzRwqaeBcrXFXl3mP/nK78odIYxWV5c67&#xA;dV4iHToGYcu37yb0YyP9UnFWGX3/ADkd+beuck8peSE02BtkvdWkZjxP7YQ/VhX2HP6cVSKW6/5y&#xA;J1OQ3V/55SwkNeNtZQoI18B8McVfpr9OKvOfOn5Vfmlr2s3Gt6nf2+t6jc8BLcep6UjCNAi1Vkjj&#xA;WiqBscVQllJ+bvleBbcaCJII1pxjtUkFF7s1oRX5k4qrxfnTf2sno6tohjkH2uDtGw/2Ein9eKp1&#xA;ZfnL5SnoLhbm0PcyRh1H0xlz+GKp9aefPJ12vKLV7ZR1/fP6J+6XhiqX6t+aXk7TgQt2b2Uf7rtR&#xA;6n/Dnin/AA2KsetfP/n/AM1XLWXk3y/LPJXi0kcb3LJXozEBY4/9ntirLdH/AOcYvzf81Os3nHWY&#xA;9JtSatbu/wBalHf4YISsA/5GYq9X8pf84p/lXoRSa/t59eu1353z0hDf5MMXBSPZ+WKsvvvyU/KW&#xA;9gWGbylpiIooDBbpbvSlN3hEbH6TirD9W/5xL/J6+r9Wtr3S6/8ALJdO1Pl9ZFxirC9U/wCcKdOJ&#xA;56N5pnt2XdFurZZd/wDXjeGn/A4qlEn/ADjp/wA5AaFQ6B5sjuYUpxgS9uYSaHvFIvpf8NiqU61q&#xA;v/OUPkewl1HX7YS6Xa09S5mWznjAZuIJe3YSbk9ziqXWH/OVXmWNaX+i2dw1OsDywD7mM2KpB5o/&#xA;5yJ/MDWVaGylj0W2YUK2YrKR7zPyYf7Djiqh5H0P8sdaddQ87ebphqMxLTWLJMrVB2Ml3Isity9q&#xA;H3xV9EeSLX8p9NjWPynLpfqEcTJbzRTXDbdGkLPKfkTirNMVUri2t7mMxXESTRnqkihl8OhrirH9&#xA;Q/LX8v8AUKm68vWDMesiW8cbn5vGFb8cVY1qH/OPH5XXdTFp81kx6m3uJf1StKv4YqgIvyGuNMFP&#xA;LPnbXNG4iiBJyQu1P90tbYqkXnDzd+b35c27Ov5oRahcLQx6ZdwxzXUqlh+xItyVFO5YexxVC+VP&#xA;+czPP9tqVrH5jtLHUNLaRFvJIonhuVjJozRlH9PkAa0Kb+2Ks28//wDOZ2nadfXem+UdG/SL28jx&#xA;DU7yThbsyEryjiiq7oexLr8sVeWH8+/zH853MsOteef8K2ZI9OGwt3iry68ZYQJBT/LlxVN9E/Lr&#xA;8t9TufrdzrTeZr6QgyPNeB2ZvdY2En0MxxV6BpXl7QtJQLpun29oKULRRqrH5sByP0nFUwxV2Kux&#xA;VSuru0tIWnu5o7eBftSysEQfNmIGKsD8yfnD+X9rG9uW/TDjYwwRiSOvu8nFCP8AVriryvWb2786&#xA;v6Xl7yfb2cZepubWI+pUfzzKIogD3qv04qmejfkP5guQH1S8h09SP7tAbiQexAKJ9znFUfe/84/X&#xA;SitjrCSH+SeEp/wys/6sVR2hWv8AzkH5JslsvLWrf6DCWaO1gkhliBZuTFYrtANzv0xVkVt/zkh+&#xA;fmiEDWtAgv4VI9SWS0mQke0lu4iH/AnFWQ6T/wA5q6dUR635Wnt3XZ3tLhZf+ScqQ0/4LFWcaP8A&#xA;85Xfk7qHEXF9daWzUot5ayGhPYtb+uo+/FWc6R+aX5b6wB+jvM2mzuf91fWYkk8f7t2V/wAMVSbz&#xA;h+fX5WeVY2+u65DeXQFVstPIu5iRX4T6ZKIdv22XFXiXmT/nLXzrr08lh5B0H6qDst5cL9auAD0f&#xA;01Ahi/2XMYqwe78mfmN5yulvvO+vTSb8lgkkM7JXqEjUrDEN/wBj7sVZLov5b+UdKUFLJbuYChnu&#xA;qSn/AIEjgPoXFU0uvK/lu7FLjS7WTsCYU5D5MBUYqkl5+VPkm5qVsmt2P7UMsg+5WLL+GKpHefkf&#xA;o71+p6lcQnt6qpKB/wAD6WKoeH8uPzB0j/jg+ZHhVeixz3FrtTwjLjFUdD5i/wCciNHoEvHvoVpU&#xA;P9WuK093Hq4qjI/+ch/zO0kD9O+XoGhWgMjQ3FsTU/zlnTf2XFU2t/8AnK7TzATceXZUnHRY7lXQ&#xA;/wCyMaEfdirFdb/OH80vOZeDRk/QumN8Ja2JVqf5V01GJH/FYX5Yqk+m/l5arJ9Y1adr24Y8nUEh&#xA;Cx3PJj8bfhirvP1naW3lqOK3hSKNJ04qigAVVvDFVvkDTtPuNAka4topmadgxkRWJAVaDcHxxVNL&#xA;ryT5auKk2giY/tRMyfgDx/DFUouvyxsGqbW8liPYSKsg/DhiroNF/MPSN9K1uTgOkSzyKD842qmK&#xA;pjb/AJjfm9pVPrdut+i/78gV9v8AWtih+/FUxt/+ch7uJCl/oINwB/uudowT7q8bkffiqR65+fHm&#xA;6+LJpyQ6XCdgUHrS0Pi8g4/cgxVrQ/Jv+Lmivtd83wSyyAN9W9b1rkBv2SJWT0z8gRir0vRPyq8k&#xA;6UFZbEXsy/7uuz6xPvwNI/uXFWWpGkaBI1CIooqqKAD2AxVdirsVdirsVSTzLfeT7SDn5hazEZGy&#xA;XSpIzD/JjIZm+gYq8Y83a/8AlzfiS08veXTJeSgpDdoXgCsejJDGfj+TAYqo+XvyZ87auFkmt10y&#xA;2bf1LwlHp7RAGSv+sBiqeXf/ADjz5gSMG01O1melWWRZIhXwBAkr+GKrbPyt+dHli3Ftp0ImsY2L&#xA;COI28yknc0VqS74qub8y/P8ApW2t6AVRQau8M1uTTvybkv3DFUbZfnhoz0F7p1xAT3iZJgPv9I/h&#xA;iqfWX5o+Sbqg+v8AoOf2Jo3SnzahT8cVT+y1vRr6n1K+t7mvaKVHP3AnFUbiqheXtnZQNcXc6W8C&#xA;falkYKo+k4qwHzB+cuj2haHR4W1Cfp6zVjhB9q/G33D54qwHWNd83eZTTUbkxWhNRbKOEQpuPgG7&#xA;U7cjiqTalpsNpBGyMzOWoxPTpXpir1by6iJoGnBFCg20TEDbdkBJ+knFUwxVi35j/wDKPL/xnT/i&#xA;LYq78uP+Ueb/AIzv/wARXFWU4q7FXYq7FWE/mfHH9UsZOI9T1GXn3pStMVTSw8m+XLnSbMy2YLvC&#xA;jNIGdWLMoJJIPjiqDuvyy0l6m2uZoSegbjIo+iin8cVQ0XlDzjpe+j608ar0VJZYK/7FSy/ecVR0&#xA;Pm784dL2lrfRr0DxxzV+mKkn3nFUfbfnvq1s4j1jRF5ftGJ3hPzCSCT9eKsi0/8APLybccVuVurJ&#xA;v2mkjDoPkYy7f8Liresfnf5PtIidP9bUpv2VRGhT/ZNKFI+hTirF4fNv5reeC6eX7b6jYBvTknho&#xA;gU0Bo1xJvyAIPwUPtiqdaL+QaSS/W/M+qSXlw55SQ25NCf8AKmkq7f8AAjFXo+h+VPLmhR8NJ0+G&#xA;1NKGVVrKw/ypGq7fScVTbFXYq7FXYqlmoeV/Leo1N9pdpcs3V5IY2b/giOWKsb1D8mPy/u6lbBrV&#xA;zWr28si9f8li6fhirA/N/wCUnkbQoTLN5lfTyRWOG4RLiRv9VIvTc/OmKvNbTzBr9kStlqV1FGta&#xA;COWRVp0qVBpiqqsmqa7KZdRvZrgRbBpXaQivZeRNMVTK2sLW3/u0HL+c7t9+KojFUr8wf7zR/wCv&#xA;/A4q9L0D/jhab/zCw/8AJtcVR+KsW/Mf/lHl/wCM6f8AEWxV35cf8o83/Gd/+IrirKcVdirsVdir&#xA;C/zO/wB4LL/jK3/EcVZXo/8AxyLH/mHi/wCIDFUZirsVdiq1445F4yKHU9VYAj8cVSTWfK2gz2Nw&#xA;5s44pVjdlkiURsGCkg/DQH6cVY3+Wv5d2nm2PUJLq7ktltPTVFiVSS0lTUluw49MVZO35K+atMcy&#xA;aB5h9Nq1G81q3/BRGTfFWw35+aITxdtRgX3hua/8FSbFV6fnd5y0pgnmDy8ARt9ma0Y/8jBKPwxV&#xA;PdO/P/ynPRb21u7Nz1YKssY+lWDf8LirKNO/MzyJqAHoa1boT+zOTbmvh++CYqyK3ube5jEtvKk0&#xA;R6PGwZT9IqMVVMVYj5n/ADT8n+X+cU139bvV/wCPS1pI4PgzVCL9LV9sVeV69+cnnPXS8GjRDSrN&#xA;tucR5TU95mAC/wCxAPvirE00V5pmuNRne4nc1kJYksf8p2+I4qjJYIYbKZIkCLwbYD2OKpb5f/uZ&#xA;f9YfqxVNsVdiqV+YP95o/wDX/gcVel6B/wAcLTf+YWH/AJNriqPxVi35j/8AKPL/AMZ0/wCItirv&#xA;y4/5R5v+M7/8RXFWU4q7FXYq7FWF/md/vBZf8ZW/4jirK9H/AOORY/8AMPF/xAYqjMVdirsVdiqH&#xA;1D/eC5/4xP8A8ROKoT/nHz/ePWv+MkH/ABF8VeuYq7FWmVWUqwBU7EHcHFUl1DyR5R1Cpu9ItXc9&#xA;ZFjWNz83Ti344qxnUfyP8l3NTbfWbFuwil5r9IlEh/HFWPT/AJFatZyGbRNe9OTqgkV4WFOn7yJm&#xA;/wCI4qwnzDf+frPUpvLmravdyOhEbxm4leN1YVDVJ+JWU1+LFVC10K0ho0n75/8AK2X7v64qmIUK&#xA;AFFAOgGKt4qpXf8AvLN/qN+o4qlPl/8AuZf9YfqxVNsVdiqV+YP95o/9f+BxV6XoH/HC03/mFh/5&#xA;NriqPxVi35j/APKPL/xnT/iLYq78uP8AlHm/4zv/AMRXFWU4q7FXYq7FWF/md/vBZf8AGVv+I4qy&#xA;vR/+ORY/8w8X/EBiqMxV2KuxV2KofUP94Ln/AIxP/wAROKoT/nHz/ePWv+MkH/EXxV65irsVdirs&#xA;VdirsVfPv5o/+TPm/wBWD/kyuKoTFXYq7FVK7/3lm/1G/UcVSny//cy/6w/ViqbYq7FUr8wf7zR/&#xA;6/8AA4q9L0D/AI4Wm/8AMLD/AMm1xVH4qxPzvKNRFnoGng3WrXl1GkNrFRnLtVEWnizMABiq/wDL&#xA;j/lHm/4zv/xFcVZTirsVdirsVYX+Z3+8Fl/xlb/iOKsr0f8A45Fj/wAw8X/EBiqMxV2KuxV2KofU&#xA;P94Ln/jE/wDxE4qhP+cfP949a/4yQf8AEXxV65irsVdirsVdirsVfPv5o/8Akz5v9WD/AJMriqEx&#xA;V2KuxVSu/wDeWb/Ub9RxVKfL/wDcy/6w/ViqbYq7FUr8wf7zR/6/8Dir0Kw1Kx0/y1p1xeTLDGLW&#xA;GhPUn012UDcn5YqxTVvO+qanI1po0bQQnZpv92EeNeifrxVIbvTZtPhjvRcOLxZVYSISCrfaDK32&#xA;uQIrXFU30zzQvly6vtPtqanpcdzItvdrWIuoYqsgqDs6qGocVZLZfmD5fuKCZpLVz2kWo+9OX44q&#xA;n1pqFjeLytbiOcdf3bBqfOmKq+KuxVhf5nf7wWX/ABlb/iOKsr0f/jkWP/MPF/xAYqjMVdirsVdi&#xA;qH1D/eC5/wCMT/8AETiqE/5x8/3j1r/jJB/xF8VeuYq7FXYq7FXYq7FXz7+aP/kz5v8AVg/5Mriq&#xA;ExV2KuxVSu/95Zv9Rv1HFUp8v/3Mv+sP1Yqm2KtEgAkmgHUnFUi1m/hnCxRHkENWftXptiqtp+kT&#xA;3ccUt3K3oKKRR1JPHwFfsjFU9hghgjEcSBEHYYql/mP/AI54/wCMi/qOKs9/KaGJ/Kcquisr3Mgc&#xA;EAg/CnWvXFU41HyD5Tv6tJp6RSH9uCsJr40Sin6RirF7/wDJyEN6ml6lJE67os6ht/8AXTiR/wAD&#xA;iqXSaF+Z+jbxOb+FevBxPt/qyUk+4YqpR/mFqVnJ6Or6Y0co+1QNEw/2EgP68VS3zn5p07WbW1jt&#xA;FkVo2Z5PUAFKigGxOKs+8vXdtc6NZtBIsgWGNWodwyqAQR23GKpjirsVdirsVQ+of7wXP/GJ/wDi&#xA;JxVCf84+f7x61/xkg/4i+KvXMVdirsVdirsVdir59/NH/wAmfN/qwf8AJlcVQmKuxV2KqV3/ALyz&#xA;f6jfqOKpT5f/ALmX/WH6sVRd5qVtaggnnJ2jXr9PhirIfJX5U+dfPLJclf0ZoZNfrs6kKw/4pj2a&#xA;X57L74qyH86vyt8q+TPJ2ky6VFI1+936NzeyuzPKpiZjVQRGu6ilFxVhVh/vDbf8Yk/4iMVV8VSv&#xA;zH/xzx/xkX9RxV6B+Uf/ACir/wDMVJ/xFMVZrirsVdiqncW1tcxmK4iSaI9UkUMp+g1xV5Z+avlv&#xA;R9Nhsrywt1tnmd45Uj2QgCoPHoD8sVZnp3/OL+s3fl7TdY0rzDFHf3ltFcmCWJ4kUzIHCiaNnbbl&#xA;T7GKpNqX5e/nt5aqz2D6tap/uy3K3nKn+Sv+kfeuKpIn5iXVnObbWdLktp0/vFWqOP8AnnIAf+Gx&#xA;VOrHzt5bu6AXYgc/sTgx0/2R+H8cVTqKWKVA8TrIh6MpBB+kYqpah/vBc/8AGJ/+InFUJ/zj5/vH&#xA;rX/GSD/iL4q9cxV2KuxV2KuxV2Kvn380f/Jnzf6sH/JlcVQmKuxV2KobUbiKG0lLsAWUqo7kkU2x&#xA;VLvKegeZ/MF8dK0C2e4nko0pWgWNa05vIdkXfrXFX0N+X3/OPOgaIY7/AMxMms6oKMISD9Uib2Vt&#xA;5T7uKf5OKvXVUKAqigGwA6AYq8X/AOcpP+UQ0n/toD/kxJirxuw/3htv+MSf8RGKq+KpX5j/AOOe&#xA;P+Mi/qOKvQPyj/5RV/8AmKk/4imKs1xV2KuxV2KvO/zm/wCOZp3/ABnf/iGKvqXyT/yhmgf9s60/&#xA;5MJiqdYqgtV0TRtXg9DVbC3v4e0dzEkyivgHDYq881//AJxw/K/VSzwWc2lTNuXsZSq1/wCMcolj&#xA;H+xUYq881b/nFfzHYO0/lfzEkjdViuFe2enh6kRlDH/YrirC/Mnlj86PLFhcHV9Pkl09UYSXqLHc&#xA;oiEULl4ixUf8ZMVSr8r/AMwrLynLexX9vJLaXnBucIBdHjqBsxUFSG8cVexaT+ZnkjVOKwapFFK3&#xA;+6rmsDA+FZAqn6CcVZLHJHIgeNg6MKqykEEexGKrsVdirsVdir59/NH/AMmfN/qwf8mVxVCYq0zK&#xA;oLMQAOpOwxVLJtXkmnW002Jrm5kPGMIpYlj2VRuxxVldp+TWty6Hfazr119Tnht5J4LQASSVRS49&#xA;TcKvT7I/Dpir0D/nFeKMaJr0oUeo1zCrPTcqsZIFfbkcVe5Yq7FXi/8AzlJ/yiGk/wDbQH/JiTFX&#xA;jdh/vDbf8Yk/4iMVV8VSvzH/AMc8f8ZF/UcVegflH/yir/8AMVJ/xFMVZrirsVdirsVed/nN/wAc&#xA;zTv+M7/8QxV9S+Sf+UM0D/tnWn/JhMVTrFXYq7FXYqlvmZVby3qqsAVNncAg7ggxNirxL/nD7yL5&#xA;O8y6f5pl8waNaarJC9rDA13Es3ppIsrN6YevAkqPiXf3xV6f5m/5xD/KXVg76bHd6FO26m0mMkVf&#xA;eO49Xb2VlxV5pqn/ADiJ+ZWgSPP5M80RXKD4vSdpbCVv8mimaJv9kwxVi+oH/nInyaSNe8uz31rH&#xA;9u5EAuIwvj69mSg/2eKrdK/PvRJSE1XT57N+jPEVmQHxNfTYfccVZnpPn7ydqtBZ6rAZD0ilb0ZC&#xA;fAJLwJ+jFU/BBFRuD0OKvn380f8AyZ83+rB/yZXFUnvtVtrWqk85f99r/E9sVTPyz+X3mzzgyXEg&#xA;/R+jncXMoIDD/ipNjIffp74q9s8p+Q/LvliGmn2/K6YUlvZaNM3iOVPhHstBiqP80f8AKNat/wAw&#xA;Vx/yabFWL/8AOLH/ABwNc/5i4v8Ak3ir3DFXYq8X/wCcpP8AlENJ/wC2gP8AkxJirxuw/wB4bb/j&#xA;En/ERiqviqV+Y/8Ajnj/AIyL+o4q9A/KP/lFX/5ipP8AiKYqzXFXYq7FXYq87/Ob/jmad/xnf/iG&#xA;KvqXyT/yhmgf9s60/wCTCYqnWKuxV2KuxVLvMn/KO6p/zBz/APJpsVeXf84Of8crzd/xnsv+ITYq&#xA;+n8VdirsVY55l/LjyF5nVv09oFjfyP1uJIUE/wBEyhZR9DYq8n8zf84a/lnqJaTRbq+0KU/YjSQX&#xA;UA/2E1ZT/wAjcVedaj/zi1+dPlnk/lLzBDqVslfTt0me0kbwrDNyt/vkxV4dr+lec7nzrPpOuRSj&#xA;zO1wttPBLRWEmwUfD8ASlCCvw8dxtir2HyZ+S+iaRwvNZK6pqIowRh/o8Z9kP2z7t9wxV6OAAKDY&#xA;DoMVdiqWeaP+Ua1b/mCuP+TTYqxf/nFj/jga5/zFxf8AJvFXuGKuxV4v/wA5Sf8AKIaT/wBtAf8A&#xA;JiTFXjdh/vDbf8Yk/wCIjFV888UEZklYIg6k4qk0Wq6dd6vYnVY5v0DHcxm+WCnqtFyHqBSSFDFK&#xA;8d8Vek/lH/yir/8AMVJ/xFMVZrirsVdirsVed/nN/wAczTv+M7/8QxV9S+Sf+UM0D/tnWn/JhMVT&#xA;rFXYq7FXYql3mT/lHdU/5g5/+TTYq8u/5wc/45Xm7/jPZf8AEJsVfT+KuxV2KuxV2KuxV8Y/nL/6&#xA;1Snzsf8AqEXFXouKuxV2KpZ5o/5RrVv+YK4/5NNirF/+cWP+OBrn/MXF/wAm8Ve4Yq7FXi//ADlJ&#xA;/wAohpP/AG0B/wAmJMVeIDUrez022LnlIYk4xjqfhH3YqqaL5a1TzDKt3ek2+nA/DTYsPCMH/iRx&#xA;VOvPNhZ2HlaO2tIhFCs6UUdzxbcnucVQ3l3ztb+UbvUNEYDU9Nhu5RBfW5481VuHqIrfaVwgYVIx&#xA;Vn+k+e/K2qcVhvVimb/dM/7pqnsOXwk/6pOKp+CCKjpirsVdirzv85v+OZp3/Gd/+IYq+pfJP/KG&#xA;aB/2zrT/AJMJiqdYq7FXYq7FUu8yf8o7qn/MHP8A8mmxV5d/zg5/xyvN3/Gey/4hNir6fxV2KuxV&#xA;2KuxV2KvjH85f/WqU+dj/wBQi4q9FxV2KuxVLPNH/KNat/zBXH/JpsVYv/zix/xwNc/5i4v+TeKv&#xA;cMVdir5u/wCcjfzC0PWjZeXdJmW7NhO097dRmsayBSixow2b7TcqdNvfFWF+T/JMEsEOp6kPUWQB&#xA;4LXtTsz+NeoGKs9AAAAFANgBirFvzH/5R5f+M6f8RbFVH8v7KzuPLkizwRyq878w6hq0VaVqO2Ko&#xA;jUfy90K6q1uHs5D/AL7PJK+6tX8CMVSuPQfPWgnlo9+00C7iJWoPpikqn3YqmFn+a+r2Mgt9f0w8&#xA;hsZIwYnoO/B6q30EYqy7SfP3lbU+KxXqwTH/AHTcfum+VW+E/QcVY3+crKdL02hBrM5HuOGKvqby&#xA;T/yhmgf9s60/5MJiqdYq7FXYq7FUu8yf8o7qn/MHP/yabFXl3/ODn/HK83f8Z7L/AIhNir6fxV2K&#xA;uxV2KuxV2KvjH85f/WqU+dj/ANQi4q9FxV2KuxVLPNH/ACjWrf8AMFcf8mmxVi//ADix/wAcDXP+&#xA;YuL/AJN4q9m1XVdN0mwm1DUrlLSygXlLPKeKgfxJ7AdcVfPfnH80vNX5iahJ5Z8kwy2ujtVLq7NY&#xA;3ljOxaVx/dRH+X7Td+vHFWK/mL+W2meU/K2nTpK9xqc1x6d1OTRCDGzUVOwBXbvirIdA/wCOFpv/&#xA;ADCw/wDJtcVR+KsW/Mf/AJR5f+M6f8RbFXflx/yjzf8AGd/+IrirKcVdiqnPb29xGYp4kljPVHUM&#xA;PuOKsd1H8vtBuqtAr2ch7xmq191av4UxVhXmby1f6L6Amn+sWz1WFxUcSNyOJJp9GKvWfJH/ADkT&#xA;5o8r6Jpdh5j0N7zSlhWOw1Ac4JXgj+FSDIGjm4041HHpua4q9g8r/nx+WfmDhHHqg066en+i6iPq&#xA;7VPQeoSYSfYPirP45I5EWSNg8bgFXUggg9CCMVXYq7FUu8yf8o7qn/MHP/yabFXl3/ODn/HK83f8&#xA;Z7L/AIhNir6fxV2KuxV2KuxV2KvjH85f/WqU+dj/ANQi4q9FxV2KuxVLPNH/ACjWrf8AMFcf8mmx&#xA;V5b+SX5leWfJnlXXX1SZmvHnjktLGNSZJvgI+E04gV6knbFVJk89fm/qi32qSNpvliFz9XhSvpAD&#xA;akSmnqydmkbYb/6uKvWPL/l3SNA09LDS7cQQru7dXdu7u3VmOKvP/wDnIL/lGtO/5jf+ZT4ql+gf&#xA;8cLTf+YWH/k2uKo/FWLfmP8A8o8v/GdP+Itirvy4/wCUeb/jO/8AxFcVZTirsVdirsVYX+Z3+8Fl&#xA;/wAZW/4jir7o8m6bp2pflt5ds9RtYb20l0mxElvcRrLGw+rJ9pHBU4qwLzj/AM4oflP5g9SaxtZd&#xA;AvWqRLp70iLHpWCTnGF9k44q8rvf+cbfzy8kStceQvMQ1K1QlltY5TayN3+K2nL2zfS/0YqgYvz+&#xA;/M3yfdJYfmF5XkBrxFwY3s5Wp1ZeQaGX/YcR74q9G8r/AJ+flnr/AAjGpjTLpv8Aj31EC3P/ACNq&#xA;0J/4PFWYa/LFL5Z1KWJ1kjeznKOpDKQYm3BGKvMf+cHP+OV5u/4z2X/EJsVfT+KuxV2KuxV2KuxV&#xA;8Y/nL/61Snzsf+oRcVei4q7FXYq8u/NP80tMsbG80DS2F1qNxG0FzMhBjgVxxcV35PSooOnfcUxV&#xA;hn5PeQdO8x3VzqGqAyWVgyKlsDQSSNU/H34gDp3xV9AxRRQxJFCixxRgLHGgCqqgUAAGwAxVfiry&#xA;3/nIL/lGtO/5jf8AmU+KpfoH/HC03/mFh/5NriqPxVi35j/8o8v/ABnT/iLYq78uP+Ueb/jO/wDx&#xA;FcVZTirsVdirsVYX+Z3+8Fl/xlb/AIjir7x/L3/lAfLX/bKsf+oZMVT/ABV2KqF9YWN/ayWl9bRX&#xA;drKKS286LJGw8GRgVOKvJfOH/OKv5S+Yec1pZSaDePv62mvwjr2rA4eID2RVxV4t5y/5xp/NfyRo&#xA;upXflfzE+paFHDJJe2lvJNaTtCFJkrbhnjk+Eb0ep8MVYN+Rv55X35X39/XTxqek6oI/rVsJBDIr&#xA;xE8JEfi/QOwKkb+IxV9U+Tv+cofyj8yenFLqbaHevQfV9UUQLU9f34LwU/1nHyxV6ra3drd26XFp&#xA;NHcW8grHNEwdGHirKSDiqrirsVdirsVfGP5y/wDrVKfOx/6hFxV6Liqjd3drZ20l1dypBbQrylmk&#xA;IVVA7knFXiPnv83r/WZJNJ8sc4LI1Wa93SWUdDx7xp/wx9umKsHj0mC3tJWcCSXg1WI2G3bFXqf/&#xA;ADj3/wAcbVv+YiP/AIhir1nFXYq8t/5yC/5RrTv+Y3/mU+KpfoH/ABwtN/5hYf8Ak2uKo/FWNa/a&#xA;XvmnVtP8naFEbzV7y4WsaAkRgA7uR9kKDyY9lG+Kqf5cf8o83/Gd/wDiK4qynFXYq7FXYqwv8zv9&#xA;4LL/AIyt/wARxV94/l7/AMoD5a/7ZVj/ANQyYqn+KuxV2KuxVKvNn/KLaz/zA3P/ACZbFX5+/lnB&#xA;DJBqPqRq9TGp5AGqkMab9sVTzUfI3l69qywG1kP7cB4j/gd1/DFUDpWk+f8Ayncm78o69PatXk0c&#xA;Mrwc/Z0qYn/2WKvRfLv/ADlx+Zvl5kt/OWjQ6vAKKbkL9TuD2J5xhoG+QjHzxV7N5P8A+cpvyj8x&#xA;cIrjUH0K8brBqa+kle9J1Lw0/wBZl+WKvWLO+sr63S5sriO6tpN454XWRGHsykg4qrYq+Mfzl/8A&#xA;WqU+dj/1CLirLPNPm3RfLOnm81OYLWogt1oZZWHZF/WegxV4F5q85eYfOt3++Y2mkRtWG0U/AKft&#xA;MdvUf36DtTFUNbWsNtHwiWnie5+eKt3X+80v+o36sVei/wDOPf8AxxtW/wCYiP8A4hir1nFXYq8t&#xA;/wCcgv8AlGtO/wCY3/mU+KpfoH/HC03/AJhYf+Ta4qomTX9f16Hyn5Rtze67dVEjj+7t0H2ndjsv&#xA;HuT0+e2Kvq38mvya0T8t9EKIRe+Yb0BtW1Zh8Tt19OOu6xKfpY7n2VfH35cf8o83/Gd/+IrirKcV&#xA;dirsVdirC/zO/wB4LL/jK3/EcVfeP5e/8oD5a/7ZVj/1DJiqf4q7FXYq7FUq82f8otrP/MDc/wDJ&#xA;lsVfAH5X/wC8+of68X6mxVnGKuxVp0R1KOoZW2KkVBHyOKpFqPkjy9e1b0Pq0h/bgPD/AIXdPwxV&#xA;L9N0Tzz5VuTeeUtentJK1ZYZXty9OgdQTHJ8m2xV6H5e/wCcs/zT8uMlv5v0iHWbZdjcFfqk5/56&#xA;xK0DfRH9OKvMfzF/NWbzP+aE/nnTrT6g/KH6rbSsJSBBEsQLkBR8XGpA6ePfFUkum1bXtQfVNcne&#xA;aaTorbbdlCjZFHgMVRiqqKFUBVGwA6YquxVSuv8AeaX/AFG/Vir0X/nHv/jjat/zER/8QxV6zirs&#xA;VeW/85Bf8o1p3/Mb/wAynxVjHlj9P+bm0nyj5Oha41ae3jS7uiGSO1jRQsju5Hwhe7fQtWIxV9jf&#xA;lJ+UHlz8t9ENrYVu9Wugrapq0oHqzuOw/kjU14pX5knfFWeYq+PvMX/ONv5o+SZbmfym0PmbQ2cy&#xA;Cz/u7xV942IVmA2qjGvXjirBovN1rFdvp+s20+jalEeM1reI0ZVvA8gpX/ZAYqnkckciB42Do26s&#xA;pBBHsRiq7FXYqwv8zv8AeCy/4yt/xHFX3j+Xv/KA+Wv+2VY/9QyYqn+KuxV2KuxVKvNn/KLaz/zA&#xA;3P8AyZbFXwB+V/8AvPqH+vF+psVZxirsVdirsVdirTKrKVYBlOxB3BxV5Z5jsbW283vDBGEhLI/p&#xA;j7ILKGNB88VR2KuxV2KqV1/vNL/qN+rFXov/ADj3/wAcbVv+YiP/AIhir1nFXYq86vrC5/NXz7pX&#xA;lHQIfrek6VdJc+YNRI/0eOMMFccx1+HkqgH4m6bAnFX1Z5N/LzyX5LtJbXyxpMOmxTHlMyc3kcjp&#xA;zlkZ5GA7AttirIsVdirsVSHzZ5D8nebrP6p5k0i31OICiNMn71P+Mcq8ZI/9iwxV4R5q/wCcRLmy&#xA;eS8/LvX5LJyeX6J1ImSAnwWZFJHgOcbf62KvJtfj89+S5hb+d/L09jGW4pqUA9S2c/5Miloz8g9f&#xA;bFVbTtX0zUU52Vwk21SoNGHzU/EPuxVi/wCZ3+8Fl/xlb/iOKvvH8vf+UB8tf9sqx/6hkxVP8Vdi&#xA;rsVdiqVebP8AlFtZ/wCYG5/5Mtir4A/K/wD3n1D/AF4v1NirOMVdirsVdirsVdirzPzZ/wApq3yi&#xA;/wCTYxVWxV2KuxVSuv8AeaX/AFG/Vir0X/nHv/jjat/zER/8QxV6wSACSaAbknFWB+r5k/NPzA3k&#xA;3ySWh0iM017zCQfRSKtGVGFOXLoADV/ZKtir6g/L78vPLPkPy/FomgW/pwj47m4f4priWlDLK/cn&#xA;w6DoABirJsVdirsVdirsVdiqye3guIXguI1mglUrJFIoZGU7EMpqCDirx3zv/wA4rflr5gke80hJ&#xA;PLGqn4kuNOoIOXYtbGiAe0ZTFXh3nf8A5xg/OeC3uGFzba9p2nRvPbtC5W4lAG6iEpzaSg2XkfY1&#xA;xV7R+Tf/ADkH5AvfLmkeW9bvF0DzFpttDY3Fpfgwxs9uoiBSZ6IOXEHi5DVNN+uKvbUdHRXRgyMA&#xA;VYGoIPQg4q3irsVdiqVebP8AlFtZ/wCYG5/5Mtir4A/K/wD3n1D/AF4v1NirOMVdirsVdirsVdir&#xA;zPzZ/wApq3yi/wCTYxVWxV2KuxVSuv8AeaX/AFG/Vir0T/nH50j0PWHdgiJOjMzGgAEdSSTiqf2d&#xA;r5o/N7X5vLHlKQ2fle1IXXfMDA8CpO8cfTlyoeKg/F3ouKvqbyR5I8u+SvLtvoOg24gs4BV3NDJN&#xA;IQOUsrUHJ2pufoFAAMVT7FXYq7FXYq7FXYq7FXYq7FXYqxTzr+VnkHzrEV8x6NBeT8eKXoBiukA6&#xA;cZ4+MlB/KTT2xV5S/wCRn5q+Qna5/KnzfJNp6nl/hvWCHiI6lUahiq3jwjP+XiqI03/nJnUPL13H&#xA;pP5seVrzyzen4RqVvG01nIe7KPibj/xjeTFXsflvzb5Z8zWIvvL+p22p2vRpLaRX4k78XUfEjezA&#xA;HFU2xVKvNn/KLaz/AMwNz/yZbFXwB+V/+8+of68X6mxVnGKuxV2KuxV2KuxV5n5s/wCU1b5Rf8mx&#xA;iqtirsVdiqjdsq2sxY0HBt/oxV6H+T/5D/mT5x0a1kF2uleRNZf1r25EkZmlW3leFkSIVk5cozTl&#xA;ROh36Yq+zfKXlDy95R0K30PQLRbPTrepVFqWZz9qSRz8Tu3cn9WKpxirsVdirsVdirsVdirsVdir&#xA;sVdirsVdiqG1LTNN1SyksdStYb2ymFJba4jWWJx/lI4KnFXjnmX/AJxb8rtfnWfIup3nkvXFJaOW&#xA;ykdrck70MfJXUH/IcL/knFUp/wAdf85E/lx8HnLQo/Onl+HrrWlbXKxj9qRUUfZHXnEv+ueuKslh&#xA;/wCchvyp81eT9YNtrKadefUbjlp+pUtpwxiYBV5EpIa9o2bFXyR+V/8AvPqH+vF+psVZxirsVdir&#xA;sVdirsVeZ+bP+U1b5Rf8mxiqtirsVWSzRwxmSRgqDqTir0T8mfyJ1z8yruPVtWEumeS4X3lpxmvC&#xA;p3SGv7PZpOg6CprRV9q6No+maLpVppOl262unWMSwWtulSEjQUAqSSfmTU4qjMVdirsVdirsVdir&#xA;sVdirsVdirsVdirsVdirsVdirsVYH52/I38sPOcjXGs6LEt8zcmv7SttcMf8t4+Pqf7MHFXinnP/&#xA;AJxT80aHqtxqn5aXUM1hKq8tEvpCJajqqSsODiu45MpHSpxV5jquqeYvLN0tn5z0C80WcniszxsY&#xA;XPco3Rht+wzYqj7DVdN1BOdncJOOpCn4h81PxD6RiqKxV2KuxV2KvM/Nn/Kat8ov+TYxVWxVRurq&#xA;G2jMkpoOw7k+2KvavyN/5xwvvNUlt5r88wvbeX9pdN0Y1WS6XqJJaUZIj2H2n9lpyVfXVtbW9rbx&#xA;W1tEkFvCojhhjUIiIooqqq0AAHQDFVTFXYq7FXYq7FXYq7FXYq7FXYq7FXYq7FXYq7FXYq7FXYq7&#xA;FXYqoX1hY39rJaX1vFd2kw4y286LJG48GRgVP04q8g84f84pflhrkjXWkxTeWtRPxLNpzfueXiYH&#xA;qoHtGUxV5J5i/IP87fKvKXTHg836Yn++z6d2FHcxSEMT/qu+KsFHm+3tbxrDXLO50XUE2ktryN0K&#xA;n3DBWH+yUYqncFxb3EQlt5Flibo6EMD9IxVUxV5n5s/5TVvlF/ybGKrbm7WHiiqZbiQhYYUFWZia&#xA;AAD3xV9J/kT/AM4zNDJb+bvzCtxLf7S6boEgqkHdXulOxfwj6L+1VtlVfS+KuxV2KuxV2KuxV2Ku&#xA;xV2KuxV2KuxV2KuxV2KuxV2KuxV2KuxV2KuxV2KuxV2KpT5j8peWPMtn9T1/S7XU7ffilzEshUnu&#xA;jEckPupBxV4n5q/5w/8ALEskl55K1i78uXZ3Fs7Nc2p8FHJlmX5s7/LFXlfmP8t/zt8m831TRBr+&#xA;mx9dR0omY0HUtGqiVQO5aID3xV5/pfkzz3+YmvXt/wCUtEmuxZmJJ6tFGI2I4qHaVo1qeJ2rtir6&#xA;m/Ir/nHKx8mel5j8z+nqPm9xyjH24bGopxi7PJTq9Nui9yyr3DFXYq7FXYq7FXYq7FXYq7FXYq//&#xA;2Q==</xmpGImg:image>
               </rdf:li>
            </rdf:Alt>
         </xmp:Thumbnails>
      </rdf:Description>
      <rdf:Description rdf:about=""
            xmlns:xmpMM="http://ns.adobe.com/xap/1.0/mm/"
            xmlns:stRef="http://ns.adobe.com/xap/1.0/sType/ResourceRef#"
            xmlns:stEvt="http://ns.adobe.com/xap/1.0/sType/ResourceEvent#">
         <xmpMM:InstanceID>xmp.iid:F5F25F0A17206811822AB07F030AAF4B</xmpMM:InstanceID>
         <xmpMM:DocumentID>xmp.did:F5F25F0A17206811822AB07F030AAF4B</xmpMM:DocumentID>
         <xmpMM:OriginalDocumentID>uuid:5D20892493BFDB11914A8590D31508C8</xmpMM:OriginalDocumentID>
         <xmpMM:RenditionClass>proof:pdf</xmpMM:RenditionClass>
         <xmpMM:DerivedFrom rdf:parseType="Resource">
            <stRef:instanceID>xmp.iid:F4F25F0A17206811822AB07F030AAF4B</stRef:instanceID>
            <stRef:documentID>xmp.did:F4F25F0A17206811822AB07F030AAF4B</stRef:documentID>
            <stRef:originalDocumentID>uuid:5D20892493BFDB11914A8590D31508C8</stRef:originalDocumentID>
            <stRef:renditionClass>proof:pdf</stRef:renditionClass>
         </xmpMM:DerivedFrom>
         <xmpMM:History>
            <rdf:Seq>
               <rdf:li rdf:parseType="Resource">
                  <stEvt:action>saved</stEvt:action>
                  <stEvt:instanceID>xmp.iid:0180117407206811822AB07F030AAF4B</stEvt:instanceID>
                  <stEvt:when>2014-06-01T03:22:45+09:00</stEvt:when>
                  <stEvt:softwareAgent>Adobe Illustrator CS6 (Macintosh)</stEvt:softwareAgent>
                  <stEvt:changed>/</stEvt:changed>
               </rdf:li>
               <rdf:li rdf:parseType="Resource">
                  <stEvt:action>saved</stEvt:action>
                  <stEvt:instanceID>xmp.iid:F5F25F0A17206811822AB07F030AAF4B</stEvt:instanceID>
                  <stEvt:when>2014-06-02T00:24:57+09:00</stEvt:when>
                  <stEvt:softwareAgent>Adobe Illustrator CS6 (Macintosh)</stEvt:softwareAgent>
                  <stEvt:changed>/</stEvt:changed>
               </rdf:li>
            </rdf:Seq>
         </xmpMM:History>
      </rdf:Description>
      <rdf:Description rdf:about=""
            xmlns:illustrator="http://ns.adobe.com/illustrator/1.0/">
         <illustrator:StartupProfile>Print</illustrator:StartupProfile>
      </rdf:Description>
      <rdf:Description rdf:about=""
            xmlns:xmpTPg="http://ns.adobe.com/xap/1.0/t/pg/"
            xmlns:stDim="http://ns.adobe.com/xap/1.0/sType/Dimensions#"
            xmlns:xmpG="http://ns.adobe.com/xap/1.0/g/">
         <xmpTPg:HasVisibleOverprint>False</xmpTPg:HasVisibleOverprint>
         <xmpTPg:HasVisibleTransparency>False</xmpTPg:HasVisibleTransparency>
         <xmpTPg:NPages>1</xmpTPg:NPages>
         <xmpTPg:MaxPageSize rdf:parseType="Resource">
            <stDim:w>580.837891</stDim:w>
            <stDim:h>600.000000</stDim:h>
            <stDim:unit>Pixels</stDim:unit>
         </xmpTPg:MaxPageSize>
         <xmpTPg:PlateNames>
            <rdf:Seq>
               <rdf:li>Cyan</rdf:li>
               <rdf:li>Magenta</rdf:li>
               <rdf:li>Yellow</rdf:li>
               <rdf:li>Black</rdf:li>
            </rdf:Seq>
         </xmpTPg:PlateNames>
         <xmpTPg:SwatchGroups>
            <rdf:Seq>
               <rdf:li rdf:parseType="Resource">
                  <xmpG:groupName>初期設定のスウォッチグループ</xmpG:groupName>
                  <xmpG:groupType>0</xmpG:groupType>
               </rdf:li>
            </rdf:Seq>
         </xmpTPg:SwatchGroups>
      </rdf:Description>
      <rdf:Description rdf:about=""
            xmlns:pdf="http://ns.adobe.com/pdf/1.3/">
         <pdf:Producer>Adobe PDF library 10.01</pdf:Producer>
      </rdf:Description>
   </rdf:RDF>
</x:xmpmeta>
                                                                                                    
                                                                                                    
                                                                                                    
                                                                                                    
                                                                                                    
                                                                                                    
                                                                                                    
                                                                                                    
                                                                                                    
                                                                                                    
                                                                                                    
                                                                                                    
                                                                                                    
                                                                                                    
                                                                                                    
                                                                                                    
                                                                                                    
                                                                                                    
                                                                                                    
                                                                                                    
                           
<?xpacket end="w"?>
	</metadata>
<path d="M580.213,162.271V52.467c0-2.243-1.136-4.63-3.015-5.856c-1.096-0.715-2.558-1.464-3.823-1.708
	c-0.581-0.112-7.186-1.079-11.686-1.735c-0.146-0.032-0.29-0.08-0.443-0.102L457.948,28.162c-2.438-0.195-4.589-0.586-7.836,0.585
	l-4.925,1.849c-0.518-2.497-1.883-4.398-4.519-4.777l-90.778-13.178c-2.244-0.195-3.709,0-6.052,0.586l-4.708,1.515
	c-0.674-2.377-2.896-4.174-5.442-4.541l-71.64-10.134C261.734,0.023,261.42,0,261.103,0c-0.566,0-1.132,0.073-1.683,0.217
	L206.795,13.91c-2.741,0.718-4.554,3.08-4.884,5.84c-3.415-0.533-5.729-0.885-6.345-0.959c-3.661-0.439-6.916,0.002-7.467,0.146
	l-66.745,17.361c-2.817,0.739-4.776,3.223-4.924,6.087l-6.634-1.15c-0.378-0.065-4.863-0.558-8.507,0.43L23.847,61.948l-0.104-0.034
	c-0.104-0.02-1.178,0.293-2.74,0.778l-1.375,0.36c0.01-0.006-0.02,0.036-0.046,0.085c-5.15,1.627-13.275,4.31-13.545,4.421
	c-1.634,0.677-2.42,1.002-3.62,1.99C0.885,70.811,0,73.571,0,75.554V194c0,2.12,1.019,4.037,2.626,5.265
	c-0.017,0.011-0.03,0.019-0.046,0.03C0.953,200.551,0,202.492,0,204.549v120.999c0,2.164,1.05,4.142,2.732,5.369
	C1.018,332.166,0,334.161,0,336.286v116.307c0,2.688,1.62,5.109,4.104,6.141l97.225,40.197c0.812,0.336,1.678,0.503,2.534,0.503
	c1.298,0,2.583-0.38,3.691-1.118c0.113-0.074,0.217-0.164,0.326-0.248c0.396,2.196,1.874,4.088,3.988,4.962l108.937,45.013
	c0.812,0.338,1.678,0.503,2.536,0.503c1.296,0,2.583-0.378,3.688-1.119c0.114-0.077,0.217-0.167,0.325-0.249
	c0.414,2.292,2.004,4.239,4.247,5.062l126.504,46.223c0.741,0.271,1.513,0.402,2.279,0.402c1.343,0,2.674-0.407,3.807-1.196
	c1.45-1.016,2.411-2.562,2.718-4.276c0.396,0.3,0.812,0.57,1.271,0.778c0.881,0.4,1.812,0.595,2.748,0.595
	c1.576,0,3.134-0.561,4.367-1.638l76.138-66.482c1.444-1.262,2.271-3.084,2.271-5.002v-4.062c0.397,0.291,0.821,0.554,1.287,0.753
	c0.846,0.361,1.73,0.535,2.613,0.535c1.675,0,3.324-0.636,4.585-1.835l58.567-55.896c1.312-1.254,2.057-2.989,2.057-4.805v-4.062
	c0.4,0.29,0.823,0.557,1.292,0.757c0.84,0.356,1.729,0.53,2.608,0.53c1.677,0,3.329-0.636,4.592-1.842l46.854-44.824
	c1.312-1.252,2.053-2.981,2.053-4.798V296.547c0-2.532-1.438-4.843-3.713-5.96c-0.179-0.087-0.358-0.159-0.545-0.229l1.67-1.29
	c1.635-1.257,2.588-3.199,2.588-5.258V174.102c0-2.396-1.289-4.607-3.382-5.784c-0.075-0.044-0.157-0.074-0.234-0.115l0.411-0.249
	C578.993,166.751,580.213,164.596,580.213,162.271z"/>
<g>
	<g>
		<path fill="#828282" d="M194.973,25.362c-1.827-0.292-4.787-0.147-6.577,0.321l-55.299,14.483
			c-1.79,0.469-1.764,1.113,0.062,1.431l68.66,11.978c1.823,0.318,4.755,0.114,6.521-0.454l49.946-16.09
			c1.766-0.567,1.708-1.271-0.116-1.563L194.973,25.362z"/>
	</g>
	<g>
		<path fill="#FFFFFF" d="M263.895,6.591c-1.832-0.26-4.795-0.087-6.585,0.383l-41.381,10.868c-1.79,0.47-1.756,1.075,0.075,1.344
			l63.549,9.338c1.831,0.269,4.771,0.039,6.541-0.511l37.137-11.569c1.767-0.55,1.713-1.213-0.119-1.472L263.895,6.591z"/>
	</g>
	<g>
		<path fill="#C4C4C4" d="M350.736,19.521c-1.831-0.263-4.771-0.014-6.532,0.553l-35.803,11.532
			c-1.761,0.567-1.707,1.271,0.12,1.563l80.562,12.884c1.827,0.292,4.74,0.001,6.478-0.646l34.403-12.867
			c1.73-0.648,1.649-1.394-0.182-1.657L350.736,19.521z"/>
	</g>
	<g>
		<path fill="#F5F5F5" d="M287.049,40.086c-1.827-0.292-4.767-0.067-6.525,0.5l-50.602,16.3c-1.766,0.567-1.711,1.292,0.108,1.61
			l85.694,14.948c1.823,0.318,4.73,0.048,6.466-0.601l47.675-17.831c1.733-0.648,1.656-1.418-0.171-1.71L287.049,40.086z"/>
	</g>
	<g>
		<path fill="#C4C4C4" d="M457.468,34.86c-1.831-0.263-4.748,0.052-6.481,0.7l-35.042,13.105c-1.729,0.648-1.656,1.418,0.171,1.71
			L516.944,66.5c1.827,0.292,4.711-0.072,6.408-0.809l33.866-14.712c1.693-0.737,1.587-1.556-0.244-1.819L457.468,34.86z"/>
	</g>
	<g>
		<path fill="#828282" d="M396.728,57.626c-1.827-0.292-4.74-0.001-6.474,0.647l-48.217,18.033
			c-1.729,0.648-1.656,1.439,0.163,1.757l105.611,18.424c1.823,0.318,4.703-0.025,6.4-0.762l45.551-19.788
			c1.696-0.737,1.591-1.58-0.236-1.872L396.728,57.626z"/>
	</g>
	<g>
		<path fill="#9C9C9C" d="M323.285,85.138c-1.819-0.318-4.729-0.048-6.466,0.601l-66.271,24.785
			c-1.733,0.648-1.665,1.466,0.148,1.817l111.1,21.457c1.813,0.351,4.688,0.035,6.39-0.702l62.816-27.287
			c1.693-0.737,1.595-1.601-0.229-1.918L323.285,85.138z"/>
	</g>
	<g>
		<path fill="#929292" d="M209.141,65.227c-1.823-0.318-4.755-0.114-6.521,0.454l-69.33,22.333c-1.765,0.567-1.716,1.319,0.102,1.67
			l91.513,17.674c1.817,0.351,4.725,0.108,6.455-0.541l65.618-24.541c1.733-0.648,1.66-1.439-0.163-1.757L209.141,65.227z"/>
	</g>
	<g>
		<path fill="#9C9C9C" d="M109.381,47.823c-1.822-0.318-4.778-0.194-6.568,0.274L27.658,67.781c-1.79,0.469-1.771,1.14,0.048,1.491
			L105.98,84.39c1.816,0.351,4.744,0.174,6.506-0.394l68.555-22.081c1.762-0.567,1.711-1.292-0.111-1.61L109.381,47.823z"/>
	</g>
</g>
<g>
	<g>
		<path fill="#5A5A5A" d="M9.943,76.195c-1.813-0.353-3.303,0.873-3.303,2.723v111.717c0,1.85,1.465,3.747,3.255,4.214
			l90.711,23.673c1.791,0.467,3.255-0.665,3.255-2.515v-118.2c0-1.85-1.483-3.653-3.303-4.006L9.943,76.195z"/>
	</g>
	<g>
		<path fill="#5A5A5A" d="M9.835,337.34c-1.757-0.58-3.194,0.459-3.194,2.311v109.577c0,1.854,1.398,3.942,3.108,4.649
			l91.003,37.629c1.71,0.707,3.106-0.229,3.106-2.079V371.746c0-1.854-1.438-3.839-3.192-4.419L9.835,337.34z"/>
	</g>
	<g>
		<path fill="#5C5C5C" d="M117.707,97.008c-1.815-0.353-3.306,0.873-3.306,2.723v118.86c0,1.85,1.468,3.747,3.258,4.213
			l102.426,26.713c1.79,0.467,3.255-0.665,3.255-2.515v-126.12c0-1.85-1.486-3.653-3.307-4.005L117.707,97.008z"/>
	</g>
	<g>
		<path fill="#D1D1D1" d="M117.66,233.354c-1.791-0.467-3.258,0.665-3.258,2.515V357.55c0,1.854,1.438,3.839,3.195,4.418
			l102.546,33.833c1.757,0.579,3.195-0.46,3.195-2.311V264.28c0-1.85-1.466-3.747-3.255-4.213L117.66,233.354z"/>
	</g>
	<g>
		<path fill="#757575" d="M9.896,205.398c-1.791-0.467-3.255,0.665-3.255,2.515v114.271c0,1.854,1.438,3.838,3.194,4.418
			l90.833,29.988c1.757,0.58,3.192-0.459,3.192-2.31V233.285c0-1.85-1.465-3.747-3.255-4.214L9.896,205.398z"/>
	</g>
	<g>
		<path fill="#FFFFFF" d="M117.6,372.707c-1.758-0.579-3.195,0.46-3.195,2.311v118.51c0,1.851,1.399,3.938,3.109,4.646
			l102.717,42.443c1.71,0.707,3.109-0.229,3.109-2.079v-127.58c0-1.852-1.438-3.839-3.195-4.418L117.6,372.707z"/>
	</g>
	<g>
		<path fill="#FFFFFF" d="M237.138,264.349c-1.791-0.467-3.256,0.666-3.256,2.516V396.76c0,1.854,1.438,3.838,3.191,4.418
			l120.114,39.604c1.758,0.58,3.195-0.46,3.195-2.312V299.834c0-1.85-1.465-3.746-3.256-4.213L237.138,264.349z"/>
	</g>
	<g>
		<path fill="#939393" d="M237.185,120.083c-1.816-0.352-3.303,0.874-3.303,2.724v126.78c0,1.85,1.465,3.746,3.256,4.213
			l119.993,31.271c1.791,0.467,3.256-0.666,3.256-2.516V147.352c0-1.85-1.486-3.653-3.303-4.005L237.185,120.083z"/>
	</g>
	<g>
		<path fill="#5A5A5A" d="M237.074,411.917c-1.757-0.58-3.191,0.46-3.191,2.311v128.401c0,1.854,1.422,3.884,3.158,4.521
			l120.186,43.917c1.738,0.635,3.16-0.359,3.16-2.21V455.934c0-1.851-1.438-3.838-3.195-4.418L237.074,411.917z"/>
	</g>
</g>
<g>
	<g>
		<path fill="#2C2C2C" d="M573.571,177.466c0-1.85-1.296-2.581-2.879-1.624l-41.096,24.839c-1.583,0.957-2.879,3.254-2.879,5.104
			v110.809c0,1.852,1.195,2.439,2.664,1.312l41.521-32.038c1.465-1.13,2.664-3.569,2.664-5.419L573.571,177.466L573.571,177.466z"/>
	</g>
	<g>
		<path fill="#5A5A5A" d="M573.571,58.219c0-1.85-1.386-2.755-3.08-2.01L529.8,74.105c-1.694,0.745-3.08,2.869-3.08,4.719v108.401
			c0,1.85,1.296,2.581,2.879,1.624l41.096-24.839c1.583-0.957,2.879-3.254,2.879-5.104L573.571,58.219L573.571,58.219z"/>
	</g>
	<g>
		<path fill="#C0C0C0" d="M516.176,211.732c0-1.85-1.297-2.583-2.881-1.627l-52.81,31.839c-1.584,0.956-2.881,3.251-2.881,5.102
			v122.211c0,1.854,1.2,2.44,2.666,1.312l53.235-40.968c1.466-1.129,2.666-3.565,2.666-5.416L516.176,211.732L516.176,211.732z"/>
	</g>
	<g>
		<path fill="#252525" d="M516.176,83.151c0-1.85-1.391-2.756-3.081-2.013l-52.405,22.991c-1.694,0.743-3.081,2.866-3.081,4.716
			v119.639c0,1.85,1.297,2.583,2.881,1.627l52.81-31.837c1.584-0.956,2.881-3.251,2.881-5.102L516.176,83.151L516.176,83.151z"/>
	</g>
	<g>
		<path fill="#5A5A5A" d="M573.571,299.912c0-1.85-1.199-2.439-2.664-1.309l-41.521,32.038c-1.469,1.129-2.664,3.567-2.664,5.418
			v107.494c0,1.854,1.094,2.317,2.432,1.038l41.99-40.17c1.338-1.279,2.432-3.84,2.432-5.69L573.571,299.912L573.571,299.912z"/>
	</g>
	<g>
		<path fill="#252525" d="M447.066,396.312c0-1.854-1.201-2.442-2.669-1.315l-70.8,54.364c-1.468,1.127-2.669,3.562-2.669,5.413
			v129.979c0,1.854,1.141,2.368,2.534,1.151l71.065-62.062c1.396-1.217,2.534-3.727,2.534-5.575L447.066,396.312L447.066,396.312z"
			/>
	</g>
	<g>
		<path fill="#989898" d="M516.176,343.65c0-1.854-1.2-2.44-2.666-1.312l-53.235,40.968c-1.466,1.128-2.666,3.565-2.666,5.416
			V508.86c0,1.851,1.097,2.315,2.437,1.041l53.697-51.247c1.338-1.278,2.438-3.837,2.438-5.688L516.176,343.65L516.176,343.65z"/>
	</g>
	<g>
		<path fill="#292929" d="M447.066,113.172c0-1.85-1.387-2.757-3.082-2.015l-69.974,30.628c-1.695,0.742-3.082,2.863-3.082,4.713
			v133.735c0,1.85,1.297,2.584,2.883,1.63l70.372-42.333c1.586-0.954,2.883-3.249,2.883-5.099V113.172z"/>
	</g>
	<g>
		<path fill="#989898" d="M447.066,252.992c0-1.85-1.297-2.584-2.883-1.63l-70.372,42.333c-1.586,0.954-2.883,3.249-2.883,5.099
			v136.514c0,1.854,1.201,2.442,2.669,1.315l70.8-54.362c1.468-1.127,2.669-3.562,2.669-5.413V252.992z"/>
	</g>
</g>
</svg>
